<svg version="1" xmlns="http://www.w3.org/2000/svg" width="682.667" height="682.667" viewBox="0 0 512.000000 512.000000"><path d="M46 92.6v19.7l-4.7-.6c-2.7-.3-9-.9-14-1.3l-9.3-.7V146H0v293h512V146h-5.6C502 146 57.3 75.6 48.3 73.5L46 73v19.6zm11.1 82.5c5.5 1.7 10.8 6.5 13.5 12.3 3.9 8.4 2.8 16.5-3.5 23.7-12.7 14.9-37.1 7.3-38.8-12.2-1.5-16.5 13-28.5 28.8-23.8zm413.4.8c17.3 7.8 18.1 32.1 1.3 40.5-9.7 4.8-20 2.8-26.9-5.3-6.3-7.2-7.4-15.3-3.5-23.7 5.2-11.2 18.4-16.4 29.1-11.5zM186 196.7c-9.1 6.5-21.7 19.4-27.9 28.6-27.9 41.4-28.1 91.3-.6 133.9 5 7.6 21.4 24.6 28.2 29.2l4.2 2.8 3.3-2.7c1.8-1.6 10.6-6.3 19.5-10.5 9.6-4.7 16.5-8.6 17.2-9.8.6-1.1 1.1-4.5 1.1-7.4v-5.4l-4.5-2.2c-9.4-4.5-18-15.1-22.1-27.1-1.5-4.1-2.8-5.9-5.6-7.7-4.8-3.1-6.9-7.3-7.5-14.9-.7-8 1-13.6 5.1-17.6 2.7-2.5 3.6-4.3 4.1-8.3.7-4.6 3.7-14.2 8.1-25.8 1.7-4.2 1.7-5.5.5-14.8-.7-5.6-1-10.4-.8-10.7.3-.2 3.3 1.8 6.8 4.6 9.4 7.6 23.2 12 34 10.7 6.4-.7 23.3 1 29.4 3 16.3 5.4 26.3 16.2 29.6 32.3.8 4.1 2.1 6.7 4.9 9.7 4.3 4.7 5.7 10.1 4.7 18.4-.8 6.6-3 10.5-7.5 13.4-2.7 1.7-4.1 3.6-5.4 7.3-4.2 11.9-12.3 22.3-21.3 26.9l-5.5 2.9v5.3c0 2.9.5 6.2 1 7.3.6 1.1 7.7 5.2 15.8 9.3 8.1 4.1 17.1 9 20.1 11 2.9 2 5.5 3.6 5.8 3.6 1.8 0 15.4-11.4 21.9-18.3 33.5-35.5 41.8-87.8 20.9-131.4-8.6-18-22.3-34.7-37.5-45.6l-6.4-4.7h91.1l.6 7.2c.7 8.2 3.3 16.5 7.2 23.2 3.5 6 12.5 14.7 18.6 18 6.6 3.7 17.2 6.6 23.6 6.6h5.3V337.7l-7.2.6c-25.8 2-45.3 21.6-47.5 47.4l-.6 7.3h-91.5l-8.3 4.4c-33.8 18-75.1 18-109.9.1l-8.6-4.5h-91.1l-.6-7.2c-2.2-25.9-21.8-45.5-47.4-47.5l-7.3-.6V247h5.3c2.8 0 8.2-.9 11.9-1.9 21.3-6.1 35.6-23.5 37.5-45.9l.6-7.2h91.1l-6.4 4.7zM57.1 367.1c5.5 1.7 10.8 6.5 13.5 12.3 3.9 8.4 2.8 16.5-3.5 23.7-12.7 14.9-37.1 7.3-38.8-12.2-1.5-16.5 13-28.5 28.8-23.8zm413.4.8c17.3 7.8 18.1 32.1 1.3 40.5-9.7 4.8-20 2.8-26.9-5.3-6.3-7.2-7.4-15.3-3.5-23.7 5.2-11.2 18.4-16.4 29.1-11.5z"/></svg>