<svg version="1" xmlns="http://www.w3.org/2000/svg" width="682.667" height="682.667" viewBox="0 0 512.000000 512.000000"><path d="M213.5 33.8c-7 2.3-17.5 12.8-19.7 19.7-3.6 11.1-.5 24.6 7.7 32.8l3.7 3.8-3.2 12.8-3.2 12.9-4.1.7c-2.3.4-5.3.8-6.7 1-17.5 2-42.6 9.2-60.6 17.5-21.7 10-40.5 27.2-48.2 44-5.2 11.4-9 23.8-10.8 35-.3 1.9-.8 4.3-1.1 5.4-.5 1.7-.8 4.1-1.8 14.1-.2 2.2-.7 9.6-1 16.5l-.5 12.5 8.3-8.6c11.2-11.6 19-23.5 26.2-39.9 6.5-14.7 14.6-23.1 31-32.2 14.7-8.1 31.1-13.1 59-18.3 7.6-1.4 26.1-3.5 36.5-4.1 22.2-1.4 61.9-.8 74 1 1.9.3 6.2.8 9.5 1.1 3.3.4 11.1 1.5 17.3 2.6 45.8 7.8 75.2 23.3 85.4 45.3 10.5 22.6 18.7 35.2 30.2 46.6l6.6 6.5-.5-8.5c-.3-4.7-.7-10.9-1-13.8-1-10.3-1.6-15.7-1.9-17.2-.1-.8-.6-3.8-1-6.5-3.1-19.7-8.7-35.9-16.4-47.2-5.2-7.6-18.3-20.1-26.9-25.6-15.2-9.7-36.4-18-59.3-23.1-11.6-2.5-13.6-2.9-22.3-4.2-2.9-.4-5.1-1.3-5.6-2.3-.4-.9-2-6.7-3.5-12.9L306.8 90l4.9-5.4c8.5-9.3 10.6-22.6 5.3-33.9-2.5-5.4-11.5-14.1-16.7-16.4-4.9-2.1-18.5-2.3-23.3-.4-9.3 3.8-16.5 11.3-19.2 20-1.3 4.1-2.8 5.5-2.8 2.6 0-3-4.4-10.8-8.4-14.9-2.3-2.3-6.3-5.2-8.9-6.4-6.5-3.1-17.5-3.7-24.2-1.4zm43.3 36.3c.4 4.6 3.8 11.1 8.5 15.8 4.6 4.7 8.1 6.8 14.2 8.6 3.5 1.1 4.1 1.7 5.3 5.6.7 2.4 1.5 6 1.8 7.9.3 1.9.7 3.7.9 4 .2.3-14 .5-31.6.5H224c.1 0 1.1-3.8 2.3-8.4 2.2-8.3 2.3-8.4 6.2-9.6 6-1.8 9.7-4 14.1-8.3 4.3-4.3 8-11 8.8-15.7.7-4.7 1.1-4.8 1.4-.4z"/><path d="M228 177.2c-3 .5-7.2.9-9.2.8-3.9-.1-24.9 2.5-32.1 3.9-33.7 6.8-52.3 14.5-64 26.5-2.6 2.6-6.1 8.5-9.9 16.5-10.6 22.5-24.3 39.9-45.6 58.2-19 16.2-26.1 26.6-31 45.4-3 11.4-3.4 14.8-3.7 35-.3 20.4.9 29.7 5.6 44 8.7 26.2 28.6 45.3 59.4 56.8 7.1 2.7 24.2 7.3 30.5 8.3 1.9.3 7.1 1.1 11.5 1.9 4.4.8 11.2 1.7 15 2.1 3.9.3 8.1.8 9.5.9 11.2 1.4 37.4 2 90 2 62.6 0 85.1-.6 102.5-2.9 2.2-.3 6.7-.8 10-1.2 3.3-.3 6.9-.8 8-1 1.1-.2 3.6-.7 5.5-1 1.9-.3 7.3-1.5 12-2.6s9.2-2.1 10-2.3c.8-.2 5.6-1.8 10.5-3.5 17.2-6.2 30.2-13.8 40.2-23.8 7.4-7.3 9.1-9.4 13.4-16.7 5.8-9.6 8.7-17.9 12.4-35 .4-1.7.8-10.9 1-20.5.2-16.4-.9-28.9-4-42.5-1.1-5.2-6-15.9-9.9-21.8-3.7-5.6-15.2-17.4-23.6-24.2-17.5-14.2-32.3-33.3-42.6-55.1-3.1-6.5-6.8-13.3-8.2-15.2-7.7-10-32.2-21.6-55.3-26.1-3-.6-6.5-1.3-7.9-1.6-3.5-.8-14.1-2.3-23.5-3.5-4.4-.6-9.8-1.3-12-1.6-6.8-1-58.7-1.1-64.5-.2z"/></svg>