<?xml version="1.0" encoding="UTF-8" standalone="no"?>
<!-- Created with Inkscape (http://www.inkscape.org/) -->
<svg
   xmlns:svg="http://www.w3.org/2000/svg"
   xmlns="http://www.w3.org/2000/svg"
   version="1.0"
   width="800"
   height="345.39001"
   viewBox="0 0 800 345.39"
   id="Layer_1"
   xml:space="preserve"><defs
   id="defs30" />
<path
   d="M 275.441,293.013 L 275.315,297.308 L 271.06,297.917 C 260.11,299.485 248.123,295.6 239.422,291.791 C 230.463,287.874 221.716,282.068 221.716,282.068 C 221.716,282.068 221.688,159.242 264.316,4.569 L 265.574,0 L 270.223,0.911 C 287.659,4.329 298.516,8.162 314.099,16.796 L 317.747,18.817 L 316.501,22.795 C 288.12,113.096 276.533,256.182 275.441,293.013"
   style="fill:white"
   id="path3" />
<path
   d="M 166.183,89.146 C 163.476,90.256 159.802,92.186 155.676,95.518 C 146.628,102.831 135.078,117.206 127.082,145.372 L 126.063,148.96 L 122.334,149.083 C 113.812,149.366 103.637,145.772 96.155,142.536 C 88.405,139.182 79.206,133.805 79.206,133.805 L 80.19,130.06 C 97.838,62.953 147.351,39.484 147.938,39.209 L 150.427,38.037 L 152.778,39.474 C 157.695,42.487 162.617,47.473 166.125,51.39 C 168.029,53.516 169.623,55.452 170.706,56.814 C 174.133,56.944 180.677,57.353 188.197,58.635 C 198.984,60.475 212.844,64.272 222.095,72.492 L 223.985,74.173 C 223.985,74.173 220.813,116.557 215.982,163.793 C 211.13,211.213 204.411,266.033 197.003,295.646 L 195.923,299.966 L 191.495,299.486 C 182.958,298.563 172.34,295.748 163.864,293.142 C 155.508,290.576 145.484,286.823 145.484,286.823 L 146.355,279.747 C 144.349,281.424 142.134,283.208 139.796,285.002 C 130.877,291.848 118.379,300.133 108.743,300.668 C 102.503,300.674 61.584,283.291 46.477,258.527 L 45.222,256.474 L 46.01,254.198 C 46.373,253.152 47.388,247.349 50.361,238.688 C 53.45,229.698 58.554,217.767 67.012,204.848 C 83.654,179.432 113.134,150.428 165.188,132.368 C 166.081,125.008 168.022,105.721 166.183,89.146 M 158.454,193.857 C 153.814,195.74 147.424,198.838 140.511,203.66 C 127.961,212.413 113.67,226.858 105.034,250.194 C 129.441,246.459 150.418,225.34 155.171,220.246 L 158.454,193.857 z "
   style="fill:white;fill-rule:evenodd"
   id="path5" />
<path
   d="M 416.636,299.359 L 422.485,299.313 L 418.897,327.499 L 414.473,327.569 C 191.599,331.316 0,345.39 0,345.39 C 0,345.39 2.437,335.329 3.941,331.369 C 5.353,327.646 7.691,322.477 11.119,319.044 C 16.039,314.115 205.851,301.104 416.636,299.359"
   style="fill:white"
   id="path7" />
<path
   d="M 751.595,309.427 C 754.158,309.642 756.013,311.03 757.155,312.204 C 758.315,313.392 759.158,314.773 759.733,315.884 C 759.982,316.367 760.207,316.851 760.404,317.306 C 766.563,318.571 781.593,321.675 792.005,323.983 L 800.001,329.893 L 790.577,334.068 C 694.545,327.982 590.615,326.173 490.806,326.714 L 485.391,326.745 L 486.849,299.224 L 491.723,299.254 C 580.406,299.769 670.564,302.657 751.595,309.427"
   style="fill:white"
   id="path9" />
<path
   d="M 345.672,246.426 C 348.014,246.133 351.29,245.41 355.28,243.731 C 364.283,239.94 377.254,231.114 391.382,210.568 L 393.598,207.343 L 397.289,208.641 C 411.937,213.798 420.078,221.219 427.173,234.51 L 428.416,236.839 L 427.234,239.198 C 427.016,239.632 407.26,279.004 357.523,295.898 L 356.391,296.283 C 356.391,296.283 352.619,295.778 348.416,294.628 C 344.395,293.526 338.798,291.665 332.527,288.616 C 320.003,282.52 304.68,271.644 293.713,252.588 L 293.267,251.81 L 293.11,250.93 C 292.957,250.047 275.139,147.332 373.808,37.379 L 376.167,34.745 L 379.462,36.024 C 388.997,39.735 397.248,46.719 402.962,52.485 C 406.476,56.029 409.164,59.256 410.758,61.271 L 422.665,61.271 C 422.665,61.271 423.923,61.256 426.03,61.588 C 427.901,61.883 430.528,62.471 433.552,63.655 C 439.573,66.011 447.013,70.679 453.083,79.799 L 453.867,80.981 L 453.934,82.399 C 453.977,83.349 457.282,163.675 362.056,220.978 L 359.348,222.609 L 356.681,220.917 C 353.235,218.727 350.912,217.385 348.479,215.489 C 347.864,215.01 347.254,214.505 346.626,213.957 C 345.201,226.188 345.414,239.487 345.672,246.426 M 401.784,115.834 C 406.532,107.068 408.95,99.327 409.442,93.556 C 409.959,87.457 408.295,85.218 407.242,84.593 C 405.876,83.787 373.891,104.029 356.994,162.962 C 378.833,148.428 393.588,130.965 401.784,115.834 z "
   style="fill:white;fill-rule:evenodd"
   id="path11" />
<path
   d="M 702.272,80.116 C 699.562,81.227 695.888,83.156 691.765,86.488 C 682.714,93.807 671.164,108.173 663.164,136.342 L 662.149,139.929 L 658.42,140.052 C 649.898,140.335 639.724,136.741 632.241,133.505 C 624.491,130.154 615.291,124.774 615.291,124.774 L 616.276,121.027 C 633.923,53.922 683.436,30.453 684.021,30.179 L 686.513,29.003 L 688.867,30.442 C 693.783,33.455 698.706,38.439 702.213,42.358 C 704.111,44.484 705.705,46.422 706.795,47.783 C 710.222,47.915 716.766,48.321 724.282,49.604 C 735.069,51.444 748.929,55.237 758.18,63.464 L 760.073,65.144 C 760.073,65.144 756.894,107.522 752.067,154.758 C 747.218,202.178 740.496,257.001 733.088,286.617 L 732.008,290.933 L 727.584,290.456 C 719.043,289.533 708.425,286.715 699.949,284.108 C 691.593,281.543 681.572,277.789 681.572,277.789 L 682.442,270.716 C 680.433,272.39 678.218,274.177 675.879,275.968 C 666.96,282.814 654.463,291.099 644.826,291.634 C 638.587,291.641 597.664,274.26 582.557,249.493 L 581.305,247.437 L 582.093,245.164 C 582.455,244.118 583.471,238.315 586.443,229.651 C 589.529,220.665 594.633,208.733 603.094,195.817 C 619.739,170.395 649.216,141.394 701.27,123.335 C 702.168,115.984 704.109,96.696 702.272,80.116 M 694.538,184.824 C 689.901,186.707 683.509,189.811 676.598,194.633 C 664.049,203.383 649.757,217.825 641.119,241.164 C 665.529,237.435 686.506,216.311 691.256,211.216 L 694.538,184.824 z "
   style="fill:white;fill-rule:evenodd"
   id="path13" />
<path
   d="M 525.848,63.801 C 529.912,60.731 533.921,57.792 537.595,55.248 C 541.435,52.593 544.93,50.352 547.766,48.796 C 549.37,47.916 550.793,47.242 551.991,46.787 C 553.16,46.347 554.898,45.824 556.649,45.95 C 574.687,47.608 587.258,53.079 595.369,58.303 C 599.412,60.909 602.328,63.435 604.272,65.362 C 606.383,67.454 608.176,70.032 608.176,70.032 L 608.269,71.441 C 612.607,135.793 592.812,190.453 572.047,228.911 C 551.282,267.379 529.414,289.89 529.217,290.097 L 526.941,292.439 C 526.941,292.439 516.477,288.755 507.207,283.412 C 500.546,279.569 492.686,274.188 485.88,267.158 C 481.609,299.672 479.219,325.657 479.219,337.971 L 479.219,342.398 L 474.835,343.026 C 463.928,344.589 451.979,340.881 443.28,337.226 C 434.33,333.46 425.303,327.683 425.303,327.683 C 425.303,327.683 428.742,282.169 436.933,224.759 C 445.132,167.268 458.34,94.825 478.289,34.993 L 479.71,30.728 L 484.116,31.593 C 501.868,35.072 514.596,41.309 526.386,51.726 L 528.864,53.914 L 527.888,57.065 C 527.204,59.27 526.521,61.521 525.848,63.801 M 489.417,241.682 L 490.436,240.509 C 497.026,232.855 505.832,221.696 514.692,207.685 C 531.134,181.687 547.6,146.136 550.652,105.139 C 532.023,119.285 514.702,143.243 502.789,162.285 C 497.582,189.437 493.065,216.739 489.417,241.682 z "
   style="fill:white"
   id="path15" />
<path
   d="M 311.586,21.106 C 296.485,12.744 286.139,9.082 269.198,5.765 C 226.784,159.678 226.784,279.17 226.784,279.17 C 226.784,279.17 251.345,295.417 270.297,292.704 C 271.393,255.72 282.994,112.077 311.586,21.106"
   style="fill:#ed1c24"
   id="path17" />
<path
   d="M 168.118,61.703 C 168.118,61.703 202.414,61.709 218.661,76.153 C 218.661,76.153 206.736,235.343 192.005,294.252 C 175.518,292.465 151.006,283.293 151.006,283.293 L 153.033,266.827 C 153.033,266.827 124.156,294.541 108.557,295.403 C 104.203,295.409 65.028,279.044 50.796,255.711 C 52.248,251.521 64.204,171.204 169.795,136.023 C 169.795,136.023 174.376,105.121 170.373,82.464 C 170.373,82.464 138.594,85.812 122.125,143.822 C 107.551,144.304 85.091,131.198 85.091,131.198 C 102.176,66.219 150.07,43.67 150.07,43.67 C 158.556,48.867 168.118,61.703 168.118,61.703 M 164.512,186.23 C 164.512,186.23 114.873,197.959 97.724,255.71 C 131.118,255.71 159.998,222.325 159.998,222.325 L 164.512,186.23 z "
   style="fill:#ed1c24;fill-rule:evenodd"
   id="path19" />
<path
   d="M 14.694,322.493 C 17.656,319.524 203.663,306.069 416.635,304.309 L 414.346,322.305 C 191.316,326.055 6.574,339.623 6.574,339.623 C 6.574,339.623 9.473,327.729 14.694,322.493 M 491.653,304.202 C 580.2,304.716 670.223,307.596 751.13,314.361 C 754.638,314.65 756.555,321.582 756.555,321.582 C 756.555,321.582 777.51,325.85 790.86,328.81 C 694.72,322.718 590.662,320.909 490.741,321.454 L 491.653,304.202 z "
   style="fill:#ed1c24;fill-rule:evenodd"
   id="path21" />
<path
   d="M 377.571,40.624 C 394.674,47.282 408.186,66.219 408.186,66.219 L 422.625,66.219 C 422.625,66.219 437.968,66.219 448.789,82.474 C 448.789,82.474 452.339,160.507 359.381,216.447 C 352.837,212.288 350.517,211.398 343.207,202.923 C 338.813,222.659 340.768,251.447 340.768,251.447 C 340.768,251.447 366.39,255.712 395.55,213.302 C 408.928,218.013 416.1,224.53 422.625,236.759 C 422.625,236.759 403.673,274.66 355.84,290.902 C 355.84,290.902 318.766,285.798 298.1,249.884 C 298.101,249.884 280.33,148.994 377.571,40.624 M 348.862,173.749 C 405.96,141.644 424.447,88.713 409.805,80.043 C 401.468,75.102 363.834,108.591 348.862,173.749 z "
   style="fill:#ed1c24;fill-rule:evenodd"
   id="path23" />
<path
   d="M 704.208,52.673 C 704.208,52.673 738.504,52.679 754.748,67.124 C 754.748,67.124 742.823,226.313 728.092,285.223 C 711.602,283.435 687.093,274.263 687.093,274.263 L 689.123,257.8 C 689.123,257.8 660.242,285.512 644.641,286.376 C 640.294,286.382 601.116,270.015 586.883,246.678 C 588.332,242.49 600.288,162.174 705.882,126.992 C 705.882,126.992 710.466,96.091 706.463,73.43 C 706.463,73.43 674.682,76.781 658.215,134.788 C 643.638,135.27 621.182,122.167 621.182,122.167 C 638.263,57.191 686.161,34.64 686.161,34.64 C 694.643,39.837 704.208,52.673 704.208,52.673 M 700.599,177.2 C 700.599,177.2 650.96,188.929 633.811,246.678 C 667.206,246.678 696.086,213.293 696.086,213.293 L 700.599,177.2 z "
   style="fill:#ed1c24;fill-rule:evenodd"
   id="path25" />
<path
   d="M 522.968,55.393 C 520.823,62.312 518.726,69.607 516.67,77.197 C 532.207,64.879 551.409,50.532 556.187,50.885 C 590.59,54.042 603.134,71.628 603.134,71.628 C 611.638,197.83 525.516,286.379 525.516,286.379 C 525.516,286.379 497.537,276.463 483.101,255.711 C 483.101,255.711 554.394,188.033 556.187,95.091 C 533.057,108.545 511.527,138.352 497.909,160.233 C 483.385,235.802 474.071,313.116 474.071,337.812 C 455.119,340.526 430.589,324.866 430.589,324.866 C 430.589,324.866 443.385,155.553 483.096,36.447 C 500.034,39.766 511.913,45.633 522.968,55.393"
   style="fill:#ed1c24"
   id="path27" />
</svg>