<?xml version="1.0" encoding="UTF-8"?>
<svg width="34px" height="34px" viewBox="0 0 34 34" version="1.1" xmlns="http://www.w3.org/2000/svg" xmlns:xlink="http://www.w3.org/1999/xlink">
    <title>Artboard</title>
    <g id="Artboard" stroke="none" stroke-width="1" fill="none" fill-rule="evenodd">
        <g id="cinema" transform="translate(3.000000, 5.000000)" fill-rule="nonzero">
            <polygon id="Path" fill="#636978" transform="translate(19.604093, 5.751507) rotate(-45.000000) translate(-19.604093, -5.751507) " points="15.7710722 3.88690153 23.4371136 3.88690153 23.4371136 7.61611173 15.7710722 7.61611173"></polygon>
            <polygon id="Path" fill="#333940" points="24.7768711 4.21186328 22.5612266 5.42875781 19.9237695 2.79143359 21.14 0.575257813"></polygon>
            <polygon id="Path" fill="#9196AA" points="4.67058594 10.2147227 7.57838281 10.2147227 7.57838281 16.8263281 4.67058594 16.8263281"></polygon>
            <polygon id="Path" fill="#7E8596" points="4.67058594 13.4552812 7.57838281 13.4552812 7.57838281 16.8262617 4.67058594 16.8262617"></polygon>
            <polygon id="Path" fill="#636978" points="5.32428906 16.8262617 0.613230469 18.5934648 0.613230469 8.44751953 5.32428906 10.2147227"></polygon>
            <polygon id="Path" fill="#555A66" points="0.613230469 13.4552812 0.613230469 18.5934648 5.32428906 16.8262617 5.32428906 13.4552812"></polygon>
            <path d="M24.446168,20.5081563 L8.33753906,20.5081563 C7.55726562,20.5081563 6.92467969,19.8756367 6.92467969,19.0952969 L6.92467969,7.94562109 C6.92467969,7.16534766 7.55719922,6.53276172 8.33753906,6.53276172 L24.4462344,6.53276172 C25.2265078,6.53276172 25.8590937,7.16528125 25.8590937,7.94562109 L25.8590937,19.0952969 C25.8590937,19.8756367 25.2264414,20.5081563 24.446168,20.5081563 Z" id="Path" fill="#555A66"></path>
            <path d="M6.92467969,13.4552812 L6.92467969,19.0953633 C6.92467969,19.8756367 7.55719922,20.5081562 8.33747266,20.5081562 L24.446168,20.5081562 C25.2264414,20.5081562 25.8590273,19.8756367 25.8590273,19.0953633 L25.8590273,13.4552812 L6.92467969,13.4552812 Z" id="Path" fill="#414952"></path>
            <polygon id="Path" fill="#7E8596" points="9.25766406 8.75909766 23.526043 8.75909766 23.526043 15.7918516 9.25766406 15.7918516"></polygon>
            <polygon id="Path" fill="#707789" points="9.25766406 13.4552812 23.526043 13.4552812 23.526043 15.7918516 9.25766406 15.7918516"></polygon>
            <polygon id="Path" fill="#FFCE00" points="21.8073164 16.4834727 23.526043 16.4834727 23.526043 18.2021992 21.8073164 18.2021992"></polygon>
            <polygon id="Path" fill="#FFAA00" points="18.823418 16.4834727 20.5421445 16.4834727 20.5421445 18.2021992 18.823418 18.2021992"></polygon>
        </g>
    </g>
</svg>