<?xml version="1.0" encoding="UTF-8"?>
<svg width="34px" height="34px" viewBox="0 0 34 34" version="1.1" xmlns="http://www.w3.org/2000/svg" xmlns:xlink="http://www.w3.org/1999/xlink">
    <title>Artboard</title>
    <g id="Artboard" stroke="none" stroke-width="1" fill="none" fill-rule="evenodd">
        <g id="gas-station" transform="translate(8.000000, 4.000000)" fill-rule="nonzero">
            <path d="M19.0015748,21.424252 C17.7486614,21.424252 16.495748,20.8138583 16.2387402,19.0148031 C16.1102362,18.2437795 16.3029921,17.4727559 16.495748,16.7338583 C16.624252,16.2198425 16.7527559,15.7058268 16.7848819,15.191811 C16.8170079,14.3565354 16.527874,13.5855118 16.0138583,13.0393701 C15.4355906,12.4289764 14.503937,12.1398425 13.6686614,12.2683465 L13.5722835,11.7543307 C14.568189,11.5937008 15.6604724,11.9470866 16.3672441,12.6538583 C16.9776378,13.296378 17.3310236,14.2280315 17.2988976,15.191811 C17.2667717,15.7379528 17.1382677,16.3162205 17.0097638,16.8302362 C16.8170079,17.5370079 16.656378,18.2116535 16.7527559,18.8862992 C17.0740157,20.9744882 18.9373228,20.9102362 19.4834646,20.8138583 C20.9933858,20.5889764 22.599685,19.400315 22.4390551,18.0831496 C22.2784252,16.6696063 21.4431496,14.8062992 20.4472441,13.6176378 C20.3508661,13.4891339 20.2223622,13.3606299 20.0938583,13.232126 C19.9332283,13.0393701 19.7404724,12.8466142 19.5798425,12.6217323 C19.1300787,12.0113386 18.8088189,11.3366929 18.648189,10.5977953 L19.1622047,10.5014173 C19.2907087,11.143937 19.6119685,11.7864567 19.9974803,12.3325984 C20.1581102,12.5253543 20.3187402,12.7181102 20.4793701,12.9108661 C20.607874,13.0393701 20.704252,13.167874 20.8327559,13.296378 C21.8929134,14.5814173 22.760315,16.4768504 22.9209449,18.0188976 C23.1137008,19.6573228 21.2825197,21.0708661 19.5155906,21.295748 C19.3549606,21.424252 19.1622047,21.424252 19.0015748,21.424252 Z" id="Path" fill="#2B3B4E"></path>
            <path d="M13.6686614,3.75496063 L13.5722835,3.94771654 C13.5401575,4.0119685 13.5722835,4.04409449 13.6365354,4.07622047 L15.1143307,4.55811024 C15.2749606,4.6223622 15.4355906,4.68661417 15.5640945,4.81511811 L16.495748,5.6503937 L16.8491339,5.26488189 L15.7568504,4.4296063 C15.6604724,4.33322835 15.5319685,4.26897638 15.4034646,4.23685039 L13.7971654,3.69070866 C13.7329134,3.69070866 13.6686614,3.72283465 13.6686614,3.75496063 Z" id="Path" fill="#FFFFFF"></path>
            <g id="Group" transform="translate(14.182677, 3.883465)" fill="#E6E9EE">
                <polygon id="Path" points="0.2 0.06 0.08 0.78 0.2 0.84 0.36 0.12"></polygon>
                <polygon id="Path" points="0.68 0.24 0.52 0.96 0.64 1.02 0.8 0.3"></polygon>
                <polygon id="Path" points="0.96 0.42 0.84 1.14 0.96 1.2 1.12 0.48"></polygon>
            </g>
            <path d="M17.5237795,5.6503937 L16.8491339,5.23275591 C16.8170079,5.23275591 16.7848819,5.23275591 16.7527559,5.23275591 L16.2708661,5.58614173 C16.2387402,5.61826772 16.2387402,5.6503937 16.2708661,5.68251969 L16.656378,6.03590551 L17.5237795,5.6503937 Z" id="Path" fill="#F1543F"></path>
            <path d="M17.2667717,9.89102362 L17.5237795,8.18834646 C17.5237795,8.12409449 17.4916535,8.05984252 17.4595276,8.02771654 L17.4274016,8.02771654 L16.8170079,7.61007874 C16.8170079,7.61007874 16.7848819,7.61007874 16.7848819,7.57795276 C16.656378,7.51370079 16.527874,7.57795276 16.463622,7.67433071 C16.3993701,7.80283465 16.463622,7.93133858 16.56,7.99559055 L17.1061417,8.25259843 L17.0097638,9.85889764 C17.0097638,9.92314961 17.0418898,9.95527559 17.1061417,9.98740157 C17.2025197,9.98740157 17.2667717,9.95527559 17.2667717,9.89102362 Z" id="Path" fill="#FFFFFF"></path>
            <path d="M18.551811,9.92314961 L17.0097638,10.1801575 C16.7848819,10.2122835 16.56,10.0516535 16.527874,9.82677165 L16.3029921,7.41732283 L17.2667717,7.61007874 L16.9455118,7.86708661 C16.7527559,7.99559055 16.6885039,8.22047244 16.7206299,8.44535433 L16.9455118,9.56976378 C16.9776378,9.66614173 17.0418898,9.69826772 17.1382677,9.69826772 L18.551811,9.31275591 L18.551811,9.92314961 Z" id="Path" fill="#324A5E"></path>
            <g id="Group" transform="translate(16.029921, 5.570079)" fill="#FF7058">
                <path d="M1.84724409,0.112440945 L2.6503937,1.46173228 C2.68251969,1.52598425 2.68251969,1.6223622 2.6503937,1.68661417 L2.36125984,2.10425197 L1.87937008,2.23275591 L0.273070866,2.04 C0.176692913,2.04 0.112440945,1.97574803 0.112440945,1.87937008 L0.0160629921,1.26897638 C0.0160629921,1.23685039 0.0160629921,1.20472441 0.0160629921,1.17259843 L0.30519685,0.465826772 C0.337322835,0.401574803 0.369448819,0.369448819 0.433700787,0.369448819 L1.59023622,0.0803149606 C1.71874016,0.0160629921 1.81511811,0.0481889764 1.84724409,0.112440945 Z" id="Path"></path>
                <polygon id="Path" points="2.42551181 1.87937008 3.03590551 4.73858268 2.55401575 4.8992126 1.84724409 2.13637795"></polygon>
            </g>
            <path d="M18.519685,10.9833071 L18.4233071,10.5977953 C18.3911811,10.5335433 18.4554331,10.4371654 18.519685,10.4050394 L19.0658268,10.2444094 C19.1300787,10.2122835 19.2264567,10.2765354 19.2585827,10.3407874 L19.3549606,10.7262992 C19.3870866,10.7905512 19.3228346,10.8869291 19.2585827,10.9190551 L18.7124409,11.079685 C18.616063,11.111811 18.519685,11.0475591 18.519685,10.9833071 Z" id="Path" fill="#FFFFFF"></path>
            <path d="M15.1464567,22.9984252 L1.62141732,22.9984252 L1.62141732,2.08440945 C1.62141732,1.47401575 2.13543307,0.96 2.74582677,0.96 L14.0541732,0.96 C14.6645669,0.96 15.1785827,1.47401575 15.1785827,2.08440945 L15.1785827,22.9984252 L15.1464567,22.9984252 Z" id="Path" fill="#324A5E"></path>
            <rect id="Rectangle" fill="#E6E9EE" x="2.87433071" y="2.21291339" width="10.9870866" height="8.28850394"></rect>
            <path d="M15.0179528,22.5486614 L1.74992126,22.5486614 C0.946771654,22.5486614 0.304251969,23.1911811 0.304251969,23.9943307 L0.304251969,23.9943307 C0.304251969,24.7974803 0.946771654,25.44 1.74992126,25.44 L15.0500787,25.44 C15.8532283,25.44 16.495748,24.7974803 16.495748,23.9943307 L16.495748,23.9943307 C16.463622,23.2233071 15.8211024,22.5486614 15.0179528,22.5486614 Z" id="Path" fill="#2B3B4E"></path>
            <polygon id="Path" fill="#CED5E0" points="13.8935433 2.21291339 2.87433071 10.5335433 13.8935433 10.5335433"></polygon>
        </g>
    </g>
</svg>