<?xml version="1.0" encoding="UTF-8" standalone="no"?>
<!DOCTYPE svg PUBLIC "-//W3C//DTD SVG 1.1//EN" "http://www.w3.org/Graphics/SVG/1.1/DTD/svg11.dtd">
<svg width="100%" height="100%" viewBox="0 0 34 34" version="1.1" xmlns="http://www.w3.org/2000/svg" xmlns:xlink="http://www.w3.org/1999/xlink" xml:space="preserve" xmlns:serif="http://www.serif.com/" style="fill-rule:evenodd;clip-rule:evenodd;stroke-linejoin:round;stroke-miterlimit:2;">
    <g id="Artboard">
    </g>
    <g transform="matrix(1,0,0,1,-0.12922,-238.914)">
        <g transform="matrix(0.0509076,0,0,0.0509076,4.09687,242.882)">
            <path d="M126.795,468.231L329.135,468.231L329.135,250.358L197.917,240.862L32.344,250.358L62.817,409.696C68.854,441.301 94.594,468.231 126.795,468.231Z" style="fill:rgb(226,128,134);"/>
        </g>
        <g transform="matrix(0.0509076,0,0,0.0509076,4.09687,242.882)">
            <rect x="294.126" y="250.358" width="29.991" height="217.873" style="fill:rgb(221,99,110);"/>
        </g>
        <g transform="matrix(0.0509076,0,0,0.0509076,4.09687,242.882)">
            <path d="M60.605,46.036C80.193,38.921 102.077,49.126 109.22,68.712L157.24,200.64L116.987,207.13L76.508,200.64L37.928,94.65C30.812,75.061 41.018,53.178 60.605,46.036Z" style="fill:rgb(255,224,125);"/>
        </g>
        <g transform="matrix(0.0509076,0,0,0.0509076,4.09687,242.882)">
            <path d="M254.186,125.434C254.64,129.545 251.692,133.231 247.582,133.684C243.472,134.137 239.759,131.19 239.305,127.079C239.305,126.964 235.308,93.517 259.828,80.335C263.457,78.38 267.992,79.739 269.948,83.395C271.904,87.024 270.544,91.559 266.915,93.516C251.408,101.85 254.186,125.348 254.186,125.434Z" style="fill:rgb(168,117,71);fill-rule:nonzero;"/>
        </g>
        <g transform="matrix(0.0509076,0,0,0.0509076,4.09687,242.882)">
            <path d="M221.162,120.614C228.815,120.614 239.615,126.257 246.759,126.257C253.902,126.257 264.702,120.614 272.356,120.614C295.6,120.614 309.86,139.468 309.86,162.682C309.86,174.248 304.531,188.25 296.083,200.639L247.186,209.143L197.833,200.639C189.131,188.336 183.66,174.446 183.66,162.682C183.659,139.467 197.917,120.614 221.162,120.614Z" style="fill:rgb(170,220,165);"/>
        </g>
        <g transform="matrix(0.0509076,0,0,0.0509076,4.09687,242.882)">
            <path d="M329.135,250.358L24.86,250.358C11.197,250.358 0,239.161 0,225.498C0,211.834 11.197,200.639 24.86,200.639L345.037,200.639L329.135,227.795L329.135,250.358Z" style="fill:rgb(221,99,110);"/>
        </g>
        <g transform="matrix(0.0509076,0,0,0.0509076,4.09687,242.882)">
            <path d="M329.135,250.358L294.126,250.358L294.126,237.149C293.956,230.12 294.75,226.378 297.613,221.842L310.029,200.639L341.89,200.639L343.45,203.33L329.135,227.795L329.135,250.358Z" style="fill:rgb(203,87,105);"/>
        </g>
        <g transform="matrix(0.0509076,0,0,0.0509076,4.09687,242.882)">
            <path d="M324.117,435.151L151.542,435.151C143.151,435.151 136.264,428.292 136.264,419.872C136.264,411.454 143.152,404.565 151.542,404.565L324.117,404.565L324.117,435.151ZM324.117,313.998L121.551,313.998C113.16,313.998 106.272,307.109 106.272,298.717C106.272,290.299 113.132,283.41 121.551,283.41L324.117,283.41L324.117,313.998ZM324.117,374.575L136.547,374.575C128.156,374.575 121.268,367.686 121.268,359.296C121.268,350.876 128.157,343.989 136.547,343.989L324.117,343.989L324.117,374.575Z" style="fill:rgb(221,99,110);"/>
        </g>
        <g transform="matrix(0.0509076,0,0,0.0509076,4.09687,242.882)">
            <path d="M257.928,123.875C262.946,122.344 268.133,120.613 272.356,120.613C295.6,120.613 309.86,139.467 309.86,162.681C309.86,174.247 304.531,188.249 296.083,200.638L266.063,200.638C274.54,188.249 279.868,174.247 279.868,162.681C279.867,145.221 271.789,130.225 257.928,123.875Z" style="fill:rgb(135,205,160);"/>
        </g>
        <g transform="matrix(0.0509076,0,0,0.0509076,4.09687,242.882)">
            <path d="M60.605,46.036C80.193,38.921 102.077,49.126 109.22,68.712L157.24,200.64L127.22,200.64L79.201,68.711C75.488,58.508 67.805,50.883 58.508,46.885C59.188,46.575 59.897,46.319 60.605,46.036Z" style="fill:rgb(255,194,105);"/>
        </g>
        <g transform="matrix(0.0509076,0,0,0.0509076,4.09687,242.882)">
            <path d="M66.955,97.371C63.072,98.787 58.792,96.775 57.375,92.891C55.957,89.008 57.97,84.729 61.854,83.311L83.624,75.403C87.508,73.985 91.788,75.997 93.205,79.882C94.595,83.765 92.61,88.046 88.726,89.462L66.955,97.371ZM97.74,181.957C93.856,183.346 89.576,181.334 88.158,177.451C86.741,173.596 88.754,169.287 92.637,167.898L114.407,159.96C118.291,158.542 122.571,160.556 123.988,164.439C125.378,168.322 123.365,172.63 119.481,174.019L97.74,181.957ZM87.479,153.752C83.595,155.17 79.315,153.158 77.898,149.273C76.481,145.39 78.493,141.109 82.377,139.693L104.148,131.783C108.031,130.367 112.311,132.379 113.729,136.263C115.118,140.146 113.105,144.425 109.25,145.843L87.479,153.752ZM77.217,125.575C73.334,126.964 69.053,124.952 67.636,121.069C66.219,117.184 68.232,112.905 72.115,111.487L93.886,103.579C97.769,102.161 102.05,104.175 103.467,108.058C104.856,111.941 102.872,116.249 98.988,117.64L77.217,125.575Z" style="fill:rgb(191,142,94);fill-rule:nonzero;"/>
        </g>
        <g transform="matrix(0.0509076,0,0,0.0509076,4.09687,242.882)">
            <path d="M480.167,178.5L480.167,149.756C480.167,139.467 471.748,131.047 461.457,131.047L374.687,131.047C364.397,131.047 355.95,139.467 355.95,149.756L355.95,178.5L480.167,178.5Z" style="fill:rgb(144,216,249);"/>
            <path d="M480.167,178.5L480.167,149.756C480.167,139.467 471.748,131.047 461.457,131.047L431.439,131.047C441.756,131.047 450.176,139.467 450.176,149.756L450.176,178.5L480.167,178.5Z" style="fill:rgb(117,206,249);"/>
            <path d="M355.95,173.483L371.882,200.639L387.785,227.795L387.785,237.149L324.117,237.149L324.117,227.795L340.048,200.639L355.95,173.483Z" style="fill:rgb(144,216,249);"/>
            <rect x="324.117" y="227.795" width="63.668" height="240.436" style="fill:rgb(228,246,255);"/>
            <path d="M512,227.795L480.167,173.483L355.95,173.483L387.785,227.795L387.785,237.149L512,237.149L512,227.795Z" style="fill:rgb(177,228,249);"/>
            <path d="M387.785,227.795L512,227.795L512,462.221C512,466.303 510.044,468.231 506.019,468.231L387.785,468.231L387.785,227.795Z" style="fill:rgb(244,251,255);"/>
            <path d="M482.009,227.795L512,227.795L512,462.221C512,466.303 510.044,468.231 506.019,468.231L476,468.231C480.054,468.231 482.009,466.303 482.009,462.221L482.009,227.795Z" style="fill:rgb(228,246,255);"/>
            <path d="M449.892,327.491C467.383,327.491 481.613,313.261 481.613,295.798C481.613,278.337 467.384,264.079 449.892,264.079C432.43,264.079 418.201,278.337 418.201,295.798C418.2,313.26 432.43,327.491 449.892,327.491Z" style="fill:rgb(144,216,249);"/>
        </g>
        <g transform="matrix(0.0509076,0,0,0.0509076,4.09687,242.882)">
            <path d="M423.444,364.993C419.305,364.993 415.932,361.649 415.932,357.511C415.932,353.372 419.305,349.999 423.444,349.999L476.368,349.999C480.507,349.999 483.851,353.372 483.851,357.511C483.851,361.65 480.506,364.993 476.368,364.993L423.444,364.993ZM423.444,425.002C419.305,425.002 415.932,421.658 415.932,417.49C415.932,413.351 419.305,410.008 423.444,410.008L476.368,410.008C480.507,410.008 483.851,413.352 483.851,417.49C483.851,421.658 480.506,425.002 476.368,425.002L423.444,425.002ZM423.444,395.012C419.305,395.012 415.932,391.639 415.932,387.5C415.932,383.361 419.305,380.016 423.444,380.016L476.368,380.016C480.507,380.016 483.851,383.362 483.851,387.5C483.851,391.638 480.506,395.012 476.368,395.012L423.444,395.012Z" style="fill:rgb(144,216,249);fill-rule:nonzero;"/>
        </g>
        <g transform="matrix(0.0509076,0,0,0.0509076,4.09687,242.882)">
            <path d="M450.176,173.483L480.167,173.483L512,227.795L482.009,227.795L450.176,173.483Z" style="fill:rgb(144,216,249);"/>
        </g>
    </g>
</svg>
