<?xml version="1.0" encoding="UTF-8"?>
<svg width="34px" height="34px" viewBox="0 0 34 34" version="1.1" xmlns="http://www.w3.org/2000/svg" xmlns:xlink="http://www.w3.org/1999/xlink">
    <title>Artboard</title>
    <g id="Artboard" stroke="none" stroke-width="1" fill="none" fill-rule="evenodd">
        <g id="truck" transform="translate(5.000000, 7.000000)" fill-rule="nonzero">
            <path d="M24.7365723,7.08500977 L20.9908691,2.96474609 C20.7990723,2.75395508 20.5270996,2.63330078 20.241748,2.63330078 L15.5171875,2.63330078 L15.5171875,17.2884766 L17.6723633,17.2884766 C17.6723633,15.8604492 18.830127,14.7022461 20.2585938,14.7022461 C21.6870605,14.7022461 22.8448242,15.8604492 22.8448242,17.2884766 L25,17.2884766 L25,7.76650391 C25,7.51430664 24.9060059,7.27119141 24.7365723,7.08500977" id="Path" fill="#EE705C"></path>
            <path d="M15.5172363,12.1161133 L0,12.1161133 L0,1.2859375 C0,0.601904297 0.554736328,0.0471679688 1.23876953,0.0471679688 L14.278418,0.0471679688 C14.9624512,0.0471679688 15.5172363,0.601904297 15.5172363,1.2859375 L15.5172363,12.1161133 L15.5172363,12.1161133 Z" id="Path" fill="#FAC75A"></path>
            <path d="M17.9821777,9.52988281 L24.9998535,9.52988281 L24.9998535,7.76611328 C24.9998535,7.5144043 24.9059082,7.27128906 24.7364746,7.08505859 L22.2571777,4.3574707 L17.9821777,4.3574707 C17.8110352,4.3574707 17.6722656,4.49624023 17.6722656,4.66738281 L17.6722656,9.2199707 C17.6722656,9.39111328 17.811084,9.52988281 17.9821777,9.52988281" id="Path" fill="#E6E6E6"></path>
            <g id="Group" transform="translate(2.148438, 14.697266)" fill="#5B5B5B">
                <path d="M20.6963867,2.59125977 C20.6963867,4.01972656 19.538623,5.17749023 18.1101562,5.17749023 C16.6816895,5.17749023 15.5239258,4.01972656 15.5239258,2.59125977 C15.5239258,1.16279297 16.6816895,0.00502929688 18.1101562,0.00502929688 C19.538623,0.00502929688 20.6963867,1.16279297 20.6963867,2.59125977" id="Path"></path>
                <path d="M5.17915039,2.59125977 C5.17915039,4.01972656 4.02138672,5.17749023 2.59291992,5.17749023 C1.16445312,5.17749023 0.00668945313,4.01972656 0.00668945313,2.59125977 C0.00668945313,1.16279297 1.16445312,0.00502929688 2.59291992,0.00502929688 C4.02138672,0.00502929688 5.17915039,1.16279297 5.17915039,2.59125977" id="Path"></path>
            </g>
            <path d="M0,12.1161133 L0,16.211377 C0,16.8062012 0.482324219,17.2885254 1.07714844,17.2885254 L2.15517578,17.2885254 C2.15517578,15.8600586 3.31293945,14.7022949 4.74140625,14.7022949 C6.16987305,14.7022949 7.32763672,15.8600586 7.32763672,17.2885254 L15.5172852,17.2885254 L15.5172852,12.1161133 L0,12.1161133 Z" id="Path" fill="#C64533"></path>
            <g id="Group" transform="translate(3.857422, 16.406250)" fill="#B2B2B2">
                <path d="M1.74604492,0.882275391 C1.74604492,1.35854492 1.36025391,1.74433594 0.883984375,1.74433594 C0.407714844,1.74433594 0.0219238281,1.35854492 0.0219238281,0.882275391 C0.0219238281,0.406005859 0.407714844,0.0202148437 0.883984375,0.0202148437 C1.36025391,0.0202148437 1.74604492,0.405957031 1.74604492,0.882275391" id="Path"></path>
                <path d="M17.2632812,0.882275391 C17.2632812,1.35854492 16.8774902,1.74433594 16.4012207,1.74433594 C15.9249512,1.74433594 15.5391602,1.35854492 15.5391602,0.882275391 C15.5391602,0.406005859 15.9249512,0.0202148437 16.4012207,0.0202148437 C16.8774902,0.0202148437 17.2632812,0.405957031 17.2632812,0.882275391" id="Path"></path>
            </g>
            <path d="M25,12.1161133 L22.4137695,12.1161133 C22.1753906,12.1161133 21.9827148,12.3087891 21.9827148,12.547168 C21.9827148,12.7855469 22.1753906,12.9782227 22.4137695,12.9782227 L25,12.9782227 L25,12.1161133 Z" id="Path" fill="#F4A29B"></path>
        </g>
        <g id="k-logo" transform="translate(8.000000, 8.000000)">
            <rect id="Rectangle" x="0.00683239458" y="0.00683373837" width="9.64533988" height="10.9480488"></rect>
            <g id="Group" transform="translate(0.406967, 0.390409)" fill="#FF6900" fill-rule="nonzero">
                <g transform="translate(0.005699, 0.015672)" id="Path">
                    <g>
                        <path d="M0,0.88615624 C0,1.02862509 0.0911799518,1.11980515 0.233648627,1.11980515 L8.4284468,1.11980515 C8.57091547,1.11980515 8.66209542,1.02862509 8.66209542,0.88615624 L8.66209542,0.247895797 C8.66209542,0.116824456 8.57091547,0.0142468849 8.4284468,0.0142468849 L0.233648627,0.0142468849 C0.0911799518,0.0142468849 0,0.119673833 0,0.247895797 L0,0.88615624 Z"></path>
                        <path d="M0,9.45993157 C0,9.60240041 0.0911799518,9.69358048 0.233648627,9.69358048 L8.4284468,9.69358048 C8.57091547,9.69358048 8.66209542,9.60240041 8.66209542,9.45993157 L8.66209542,8.82167112 C8.66209542,8.69059978 8.57091547,8.58802221 8.4284468,8.58802221 L0.233648627,8.58802221 C0.0911799518,8.58802221 0,8.69344916 0,8.82167112 L0,9.45993157 Z"></path>
                        <path d="M7.08639188,7.6733722 C7.24310742,7.6733722 7.34853424,7.50240958 7.21746306,7.33429634 L5.23429911,4.72426703 L7.17757183,2.38777791 C7.30864301,2.20541778 7.20321619,2.03445516 7.03510316,2.03445516 L5.50783897,2.03445516 C5.31123219,2.03445516 5.20865475,2.12563523 5.1174748,2.25670657 L3.30242388,4.5789488 L3.30242388,2.27095345 C3.30242388,2.13988211 3.21124393,2.03730454 3.08017275,2.03730454 L1.68397974,2.03730454 C1.54151106,2.03730454 1.45033111,2.14273149 1.45033111,2.27095345 L1.45033111,7.43687391 C1.45033111,7.57934276 1.54151106,7.67052282 1.68397974,7.67052282 L3.08017275,7.67052282 C3.21124393,7.67052282 3.30242388,7.57934276 3.30242388,7.43687391 L3.30242388,4.89238027 L5.1174748,7.4511208 C5.20865475,7.59358965 5.31408157,7.6733722 5.50783897,7.6733722 L7.08639188,7.6733722 Z"></path>
                    </g>
                </g>
            </g>
        </g>
    </g>
</svg>