<?xml version="1.0" encoding="UTF-8"?>
<svg width="34px" height="34px" viewBox="0 0 34 34" version="1.1" xmlns="http://www.w3.org/2000/svg" xmlns:xlink="http://www.w3.org/1999/xlink">
    <title>Artboard</title>
    <g id="Artboard" stroke="none" stroke-width="1" fill="none" fill-rule="evenodd">
        <g id="k-logo" transform="translate(6.000000, 5.000000)">
            <rect id="Rectangle" x="0.0152407346" y="0.0152437321" width="21.5154531" height="24.421351"></rect>
            <g id="Group" transform="translate(0.907804, 0.870869)" fill="#FF6900" fill-rule="nonzero">
                <g transform="translate(0.012712, 0.034958)" id="Path">
                    <g>
                        <path d="M0,1.97671137 C0,2.29451063 0.203391275,2.49790215 0.521190143,2.49790215 L18.800981,2.49790215 C19.1187799,2.49790215 19.3221711,2.29451063 19.3221711,1.97671137 L19.3221711,0.552970705 C19.3221711,0.26059539 19.1187799,0.0317799256 18.800981,0.0317799256 L0.521190143,0.0317799256 C0.203391275,0.0317799256 0,0.266951375 0,0.552970705 L0,1.97671137 Z"></path>
                        <path d="M0,21.1018706 C0,21.4196698 0.203391275,21.6230614 0.521190143,21.6230614 L18.800981,21.6230614 C19.1187799,21.6230614 19.3221711,21.4196698 19.3221711,21.1018706 L19.3221711,19.6781299 C19.3221711,19.3857546 19.1187799,19.1569391 18.800981,19.1569391 L0.521190143,19.1569391 C0.203391275,19.1569391 0,19.3921106 0,19.6781299 L0,21.1018706 Z"></path>
                        <path d="M15.8073157,17.1166679 C16.1568944,17.1166679 16.3920656,16.7353088 16.0996906,16.3603057 L11.6759304,10.5382233 L16.0107069,5.32631553 C16.3030819,4.91953248 16.0679107,4.53817337 15.6929081,4.53817337 L12.2861042,4.53817337 C11.8475418,4.53817337 11.6187266,4.7415649 11.4153353,5.03394021 L7.36657775,10.2140681 L7.36657775,5.06572014 C7.36657775,4.77334482 7.16318647,4.54452936 6.87081151,4.54452936 L3.75638261,4.54452936 C3.43858375,4.54452936 3.23519247,4.77970081 3.23519247,5.06572014 L3.23519247,16.5891212 C3.23519247,16.9069204 3.43858375,17.1103119 3.75638261,17.1103119 L6.87081151,17.1103119 C7.16318647,17.1103119 7.36657775,16.9069204 7.36657775,16.5891212 L7.36657775,10.9132264 L11.4153353,16.6209011 C11.6187266,16.9387003 11.8538978,17.1166679 12.2861042,17.1166679 L15.8073157,17.1166679 Z"></path>
                    </g>
                </g>
            </g>
        </g>
    </g>
</svg>