<?xml version="1.0" encoding="UTF-8"?>
<svg width="34px" height="34px" viewBox="0 0 34 34" version="1.1" xmlns="http://www.w3.org/2000/svg" xmlns:xlink="http://www.w3.org/1999/xlink">
    <title>Artboard</title>
    <g id="Artboard" stroke="none" stroke-width="1" fill="none" fill-rule="evenodd">
        <rect fill="#FFFFFF" x="0" y="0" width="34" height="34"></rect>
        <g id="pizza_4_stagioni_archite_01" transform="translate(4.000000, 4.000000)" fill-rule="nonzero">
            <path d="M25.3950577,12.4302692 C25.4082,12.1013192 25.5000981,11.6923385 25.4091808,11.3740788 C25.2974712,10.9835365 25.0457077,10.4815788 25.0457077,10.0760308 C25.0457077,9.77571923 25.1834077,9.1086 24.991275,8.87282308 C24.7359808,8.55936923 24.4890231,8.1294 24.1736077,7.87704808 C23.9165481,7.67147885 23.3804596,7.40068846 23.2230462,7.11665769 C23.0533731,6.81055962 23.2824808,6.27604038 23.0975077,5.97710192 C22.8278942,5.54134615 22.5581827,5.10559038 22.2884712,4.66993269 C22.0471038,4.27988077 21.8168192,4.25948077 21.3723346,4.09647692 C20.314575,3.70868077 19.6558904,3.38944038 18.9471865,2.47820769 C18.7540731,2.22987692 18.5875385,1.918875 18.3110596,1.76087308 C17.976225,1.56942692 17.4736788,1.12631538 17.0948077,1.06570385 C16.8191135,1.02156923 16.3388308,1.19035962 16.0548,1.23096346 C15.7474269,1.27490192 15.4012154,1.28441538 15.1168904,1.41485769 C15.2751865,0.984692308 13.9578173,0.144565385 13.6038577,0.057375 C13.1937,-0.0436442308 12.1386865,-0.0303057692 11.8584808,0.251371154 C11.6419269,0.469003846 11.2836519,0.621513462 11.0266904,0.792951923 C10.6241827,1.06158462 10.5076673,1.18555385 10.0742654,0.968803846 C9.40959808,0.636323077 8.28220385,0.613373077 7.666575,1.03559423 C7.38274038,1.23017885 6.71061923,1.50665769 6.63068654,1.85845962 C6.50416731,2.41514423 6.48062885,2.63611154 6.60910962,3.17955577 C6.72866538,3.68514231 6.84822115,4.19072885 6.96777692,4.69621731 C7.01093077,4.87883654 6.233475,5.63412692 6.11156538,5.78663654 C5.82194423,6.14854038 5.73024231,6.21484038 5.73024231,6.66540577 C5.73024231,6.98327308 5.8548,7.58164038 5.70209423,7.86724038 C5.19699808,8.81240769 4.69190192,9.75747692 4.18670769,10.7025462 C3.81911538,11.3902615 3.52380577,12.10485 2.98644231,12.6711462 C2.62483269,13.0522731 2.263125,13.4333019 1.90151538,13.8143308 C1.75469423,13.9690962 1.76695385,14.5863923 1.73429423,14.7884308 C1.42476346,16.7004404 1.11533077,18.6123519 0.806192308,20.5243615 C0.684184615,21.2786712 0.0101019231,22.063875 0.0306980769,22.8270115 C0.0410942308,23.2160827 -0.0647307692,23.8192558 0.0671826923,24.1828269 C0.219888462,24.6040673 0.743128846,25.0589481 1.01784231,25.4150654 C1.23753462,25.6997827 2.61806538,24.9424327 2.96976923,24.8106173 C3.675825,24.5462019 4.42101346,24.33465 5.10931731,24.0274731 C6.95885192,23.2018615 8.719725,22.0583827 10.4980558,21.0884019 C11.8299404,20.3619462 13.0905231,19.5125019 14.3793519,18.7136654 C17.3442173,16.8760962 20.3523346,15.1324846 23.4513692,13.5243173 C24.1075038,13.1859519 24.7714846,12.820125 25.3972154,12.4307596" id="path5" fill="#000000"></path>
            <path d="M24.9291923,12.1595769 C24.9162462,11.8234673 24.9032019,11.4873577 24.8903538,11.15115 C24.5656212,11.4397904 24.3556385,11.8080692 23.9174308,11.7105808 C23.3432885,11.5827865 23.1487038,11.8407288 22.6497865,12.1650692 C21.8392788,12.6918404 21.0046442,13.1705538 20.1688327,13.6567212 C19.4880808,14.0529519 18.6813,14.1125827 18.0673385,14.6130692 C17.3219538,15.2205577 16.5425365,15.6458192 15.7006442,16.1173731 C14.9744827,16.524 14.3147192,16.8675635 13.5395192,17.1607154 C12.7039038,17.4765231 11.6123077,17.6670865 10.9820654,18.3215538 C10.4316577,18.8932442 10.0805423,19.4414942 9.64714038,20.09145 C9.49953462,20.3128096 9.02337115,20.4057865 8.78651538,20.5072962 C8.41931538,20.6648077 8.07094615,20.8556654 7.69030962,20.9827731 C7.25524038,21.128025 6.63058846,21.1776519 6.25328654,21.4298077 C5.61333462,21.8575212 5.08862308,22.3329 4.41316731,22.7098096 C4.17101538,22.8450577 3.63983077,23.2914058 3.36345,23.2914058 C3.10315385,23.2914058 2.76410192,23.3855596 2.51027885,23.4465635 C1.86591346,23.601525 1.15318846,23.9389096 0.570807692,24.2610923 C0.694384615,24.4001654 1.08031731,24.9999058 1.25597308,24.9356654 C1.70771538,24.7706019 2.15945769,24.6056365 2.61129808,24.440475 C3.44720769,24.1351615 4.45328077,23.9193923 5.23034423,23.4826558 C6.95993077,22.5104192 8.68961538,21.5382808 10.4192019,20.5660442 C13.0899346,19.0648788 15.5916808,17.2788981 18.2795769,15.816375 C19.6670712,15.0614769 21.0546635,14.3063827 22.4421577,13.5513865 C23.0438596,13.2240058 23.6454635,12.896625 24.2470673,12.5692442 C24.4579327,12.4544942 24.7982596,12.3318981 24.9316442,12.1583019" id="path7" fill="#E6C675"></path>
            <path d="M8.21207885,1.18221923 C7.70070577,1.56589615 7.27622885,1.66789615 7.10675192,2.346 C7.05555577,2.55117692 6.92923269,2.80843269 7.06801154,2.94721154 C7.58683846,3.46594038 7.59154615,3.55303269 7.59154615,4.285275 C8.50268077,4.00487308 9.40077115,3.69769615 10.3017058,3.38581154 C10.7335385,3.23634231 10.8535846,3.42023654 11.2567788,3.66464423 C11.7433385,3.95956154 11.8440635,4.05901154 12.3895673,3.99222115 C12.7889365,3.94337885 13.4022115,3.74055577 13.7975596,3.81999808 C14.1340615,3.88757308 14.5356865,4.22731154 14.8445308,4.38237115 C15.3949385,4.65855577 15.7447788,5.13864231 16.3746288,5.13864231 C17.104125,5.13864231 17.6660077,5.29860577 18.3479365,5.55164423 C18.8322404,5.73132115 19.3164462,5.91099808 19.80075,6.090675 C20.0495712,6.18306346 20.3053558,6.924525 20.4300115,7.14715962 C20.5744788,7.40500385 20.7436615,7.94550577 21.0148442,8.09075769 C21.4104865,8.30270192 21.8683096,8.46933462 22.1796058,8.79700962 C22.4109692,9.04063269 22.7573769,9.25208654 22.7573769,9.59918077 C22.7573769,9.78650769 22.7312885,10.0565135 22.7962154,10.1809731 C22.8846808,10.3508423 23.3908558,10.8263192 23.5720038,10.9180212 C24.35505,11.3148404 24.3947712,10.7656096 24.5871981,10.1653788 C24.6775269,9.88350577 24.4892192,9.08506154 24.3321981,8.83839808 C23.9331231,8.21109808 23.7839481,7.99866346 23.1271269,7.67010577 C22.9593173,7.58625 22.7155962,7.55368846 22.7227558,7.35282692 C22.7329558,7.06595192 22.8279923,6.65726538 22.757475,6.37980577 C22.627425,5.86843269 22.1390019,5.30419615 21.8743904,4.84382308 C21.709425,4.55694808 20.6327365,4.31479615 20.3226173,4.18562885 C19.82625,3.97888269 19.3336096,4.11766154 18.8012481,4.16915192 C18.83685,3.70446346 19.0023058,3.28881346 18.6711,2.94534808 C18.3037038,2.56431923 18.0018231,2.15033654 17.5169308,1.93476346 C16.8702115,1.64720192 16.7253519,1.620525 16.0342038,1.7544 C15.5762827,1.84296346 15.1982942,2.00626154 14.7674423,2.19094038 C14.8594385,1.49861538 14.7019269,1.46105192 14.2097769,0.950659615 C13.7144885,0.436932692 13.4713558,0.511569231 12.7420558,0.485480769 C12.2038096,0.466257692 11.8448481,0.610725 11.5131519,0.989694231 C11.1008365,1.46075769 10.8245538,1.66534615 10.2681635,1.95820385 C10.0554346,1.53284423 10.0795615,1.42603846 9.62438654,1.36670192 C9.15302885,1.30471731 8.68225962,1.24332115 8.21158846,1.181925" id="path9" fill="#B38F36"></path>
            <path d="M8.01818077,4.71181154 C7.66392692,5.01830192 7.309575,5.32479231 6.95532115,5.63128269 C6.53535577,5.99465769 6.52545,6.19159615 6.38951538,6.75161538 C6.30016731,7.11989423 6.29948077,7.53574038 6.19542115,7.89244615 C6.09116538,8.25032885 5.81370577,8.64195 5.63785385,8.97158654 C5.21170962,9.77042308 4.910025,10.6297731 4.48858846,11.4219404 C4.06038462,12.2268577 3.35884038,12.9505673 2.79411346,13.6564269 C2.16024231,14.4486923 2.04049038,14.9461385 2.00027885,15.9119019 C1.95977308,16.8836481 1.83992308,17.7253442 1.69584808,18.6751212 C1.50420577,19.9382538 1.09610769,21.0906577 0.673003846,22.3269173 C0.531773077,22.7397231 0.545994231,23.2456038 0.493523077,23.6785154 C0.908682692,23.4465635 1.32384231,23.2146115 1.7391,22.9825615 C2.03264423,22.8185769 2.60109808,22.9417615 2.93701154,22.9417615 C3.52831731,22.9417615 3.95132308,22.5842712 4.41091154,22.2435519 C4.92846346,21.859875 5.59420962,21.4809058 5.98180962,20.9634519 C6.5178,20.2478827 7.11636346,20.7400327 7.82389038,20.4980769 C9.24375,20.0125962 10.0758346,18.7651558 10.9188058,17.5852904 C11.2791404,17.0808808 11.2112712,17.0622462 11.8065,17.2704635 C12.1883135,17.4040442 12.4698923,17.1813115 12.840525,17.0260558 C13.6882038,16.6709192 14.58345,16.3859077 15.3437423,15.8656096 C16.8821769,14.81295 18.5319288,13.9490885 19.9257981,12.7019423 C19.9773865,12.8312077 20.0290731,12.9605712 20.0806615,13.0898365 C20.5428981,12.822675 21.3759635,12.0811154 21.9038135,12.0811154 C22.2875885,12.0811154 22.7708135,11.9643058 22.8928212,11.5964192 C22.9233231,11.5048154 23.1118269,11.2644288 23.1062646,11.1892038 C23.0878962,10.9506808 22.4036135,10.425675 22.2314885,10.2386423 C22.0729962,10.0664192 22.3333904,9.60683077 22.1902962,9.41155962 C21.8933192,9.00620769 21.8178981,8.87174423 21.352425,8.72109808 C21.1656865,8.66068269 20.5293635,8.57211923 20.4461942,8.38390962 C20.2528846,7.947075 20.0597712,7.51033846 19.8665596,7.07350385 C19.7964346,6.91510962 19.6924731,6.44855769 19.5084808,6.40059808 C19.0198615,6.27309808 18.5311442,6.14559808 18.042525,6.01819615 C17.5739135,5.89589423 16.1392442,5.34342692 15.7754769,5.75907692 C15.4289712,5.39609423 15.0024346,5.15963077 14.5601077,4.94405769 C14.2868654,4.81096731 13.8164885,4.45053462 13.5103904,4.43964808 C13.0463885,4.42307308 12.5824846,4.40659615 12.1184827,4.39002115 C11.7657981,4.37746731 11.4502846,4.44955385 11.1863596,4.21191346 C10.826025,3.88757308 10.7251038,3.58853654 10.2866019,3.81529038 C9.73521346,4.10157692 8.56240962,4.815675 8.01749423,4.71318462" id="path11" fill="#E6172E"></path>
            <path d="M4.06215,14.9900769 C3.60962308,14.8609096 3.15709615,14.7315462 2.70456923,14.6023788 C2.60404038,15.0463731 2.50341346,15.4904654 2.40288462,15.9345577 C2.26145769,16.5589154 2.08835192,16.6220769 2.72389038,16.7743904 C3.34471731,16.9232712 3.25281923,16.79685 3.52272692,16.2216288 C3.67278462,15.9028788 4.08068654,15.2673404 4.06215,14.9907635" id="path13" fill="#000000"></path>
            <path d="M3.55754423,15.26175 C3.36354808,15.1840731 3.16965,15.1064942 2.97575192,15.0288173 C2.93240192,15.2274231 2.44270385,16.6229596 3.05342885,16.3474615 C3.23379231,16.2660577 3.50634808,15.4618269 3.55754423,15.26175" id="path15" fill="#66CC29"></path>
            <path d="M2.316675,19.9164808 C2.20025769,20.1145962 1.95506538,20.3640058 1.75410577,20.498175 C1.50077308,20.6671615 1.56717115,20.8588038 1.38563077,21.0412269 C0.846011538,21.5838865 1.35865962,22.6156558 2.06667692,22.5725019 C2.89150385,22.5223846 4.02144808,22.3234846 4.52438654,21.5693712 C4.77605192,21.1918731 4.95641538,20.9745346 4.99280192,20.5755577 C5.01673269,20.3137904 4.94847115,20.0304462 5.07038077,19.7999654 C4.65384808,19.7575962 4.5237,19.4464962 4.06205192,19.48965 C3.59049808,19.5337846 2.67848077,20.0133808 2.316675,19.9162846" id="path17" fill="#000000"></path>
            <path d="M2.51076923,20.2656346 C2.17407115,20.5245577 1.75302692,20.8119231 1.65740192,21.2353212 C1.53284423,21.7870038 2.02891731,22.0102269 2.49203654,22.0346481 C3.02714423,22.0628942 3.50252308,21.6547962 3.96426923,21.4015615 C4.27487885,21.2312019 4.37697692,20.7925038 4.45004423,20.4983712 C4.53213462,20.1678519 4.53537115,20.1213635 4.33343077,19.9551231 C3.88727885,19.5873346 3.00713654,20.0296615 2.51076923,20.2650462" id="path19" fill="#4D3D26"></path>
            <path d="M2.78195192,20.3038846 C2.64876346,20.436975 1.92583846,21.3990115 2.60168654,21.3469327 C3.04028654,21.3130962 3.49163654,21.2170788 3.75173654,20.8274192 C3.89345769,20.6150827 3.82715769,20.4371712 3.90679615,20.2261096 C3.54116538,20.0554558 3.22133654,20.1447058 2.78195192,20.3035904" id="path21" fill="#000000"></path>
            <path d="M10.7335385,12.7794231 C11.2666846,12.8351308 11.8510269,12.4653808 12.4400769,12.6630058 C12.8227731,12.7914865 12.8883865,13.0128462 12.9843058,13.3580769 C13.0893462,13.7357712 12.9158481,13.8372808 12.68625,14.161425 C12.2918827,14.7183058 11.7388269,14.9249538 11.1398712,15.2517462 C10.8009173,15.4366212 10.1573365,15.2602788 9.84133269,15.1065923 C9.48796154,14.9346635 9.35281154,14.9030827 9.33711923,14.5248 C9.3228,14.1786865 9.50041731,13.9689 9.68627308,13.6908519 C9.88939038,13.3868135 10.7171596,12.9503712 10.7338327,12.7787365" id="path23" fill="#000000"></path>
            <path d="M10.8885,13.0510962 C11.2259827,13.0187308 11.7319615,12.7459788 12.0907269,12.8959385 C12.6182827,13.1164154 12.3807404,13.704975 12.1912558,14.0605038 C12.0388442,14.3465942 11.3523058,14.6725038 11.0438538,14.7576346 C10.7095096,14.849925 10.3393673,14.8145192 10.0351327,14.6800558 C9.72638654,14.5435327 9.76355769,14.5552038 9.76355769,14.2534212 C9.76345962,13.6286712 10.4323442,13.314825 10.8884019,13.0509981" id="path25" fill="#4D3D26"></path>
            <path d="M10.8110192,13.3227692 C10.9907942,13.2518596 11.2380462,13.2177288 11.3928115,13.2840288 C12.0517904,13.5665885 11.3957538,14.1837865 10.9272404,14.2923577 C10.6395808,14.35905 10.1930365,14.2698 10.2292269,13.9429096 C10.2537462,13.7241981 10.6431115,13.4172173 10.8118038,13.3230635" id="path27" fill="#000000"></path>
            <path d="M9.88026923,11.7711923 C9.76708846,11.6384942 9.75777115,11.3708423 9.68627308,11.1893019 C9.61330385,11.0041327 9.45020192,10.8461308 9.37566346,10.6850885 C8.96285769,11.3043462 8.59820769,12.1105385 8.02200577,12.5878788 C7.31575385,13.1731038 6.67276154,13.7456769 6.04006731,14.4085788 C6.51868269,14.495475 6.79820192,14.6067923 7.23356538,14.4098538 C7.68295385,14.2066385 8.19874038,14.0045019 8.58084808,13.7492077 C8.91274038,13.5273577 9.20344038,13.0683577 9.49217885,12.7796192 C9.81063462,12.46185 9.83319231,12.2715808 9.88026923,11.7723692" id="path29" fill="#000000"></path>
            <path d="M6.932175,14.0985577 C7.38685962,13.7196865 7.87469423,13.36455 8.27994808,12.932325 C8.74257692,12.4389 9.03533654,11.891925 9.37556538,11.3057192 C9.38105769,11.6746846 9.54818077,12.0696404 9.29837885,12.4693038 C8.80201154,13.2637269 7.71728077,13.6942846 6.932175,14.0983615" id="path31" fill="#FF994D"></path>
            <path d="M8.87154808,6.26329038 C8.55201346,6.53555192 8.11311923,6.69286731 7.78564038,7.00014231 C7.28956731,7.46561538 7.15059231,8.32810385 8.00719615,8.50542692 C8.76846923,8.66293846 9.75875192,8.68010192 10.3966442,8.13783462 C10.6542923,7.91882885 10.9529365,7.73267885 11.0824962,7.46561538 C11.1842019,7.256025 11.1415385,6.99857308 11.3150365,6.80634231 C11.0602327,6.59233846 10.930575,6.30222692 10.5783808,6.30222692 C10.3514308,6.30222692 10.0982942,6.22739423 9.88026923,6.22455 C9.58378269,6.220725 9.089475,6.37166538 8.87252885,6.26329038" id="path33" fill="#000000"></path>
            <path d="M8.91058269,6.61244423 C8.68824231,6.78613846 8.38596923,6.82242692 8.17333846,7.00024038 C7.85341154,7.26779423 7.73307115,7.89538846 8.2569,8.05907885 C8.87252885,8.25150577 9.66910962,8.12322115 10.1864654,7.70933654 C10.4427404,7.50425769 10.4790288,7.44394038 10.6170231,7.23317308 C10.7088231,7.09302115 10.6954846,6.98484231 10.8111173,6.88411731 C10.586325,6.78064615 10.5205154,6.60587308 10.229325,6.53506154 C9.79239231,6.42894231 9.34947692,6.56585769 8.91048462,6.61244423" id="path35" fill="#4D3D26"></path>
            <path d="M9.18176538,6.69002308 C8.93510192,6.84910385 8.30780192,7.13627308 8.71658654,7.54329231 C9.26071731,8.08497115 10.0059058,7.27779808 10.1904865,6.88411731 C9.86585192,6.70924615 9.66606923,6.69002308 9.18205962,6.69002308" id="path37" fill="#000000"></path>
            <path d="M5.72985,5.75927308 C5.70395769,6.18590769 5.67816346,6.61254231 5.65227115,7.03917692 C6.06733269,6.99925962 6.48249231,6.95934231 6.89755385,6.919425 C7.44021346,6.86724808 7.66069038,7.01505 7.68844615,6.45748269 C7.71424038,5.94140192 7.60272692,6.05311154 7.10018077,5.97435577 C6.64343654,5.90256346 6.18669231,5.83086923 5.72985,5.75927308" id="path39" fill="#000000"></path>
            <path d="M6.11774423,6.14697115 L6.07890577,6.65128269 C6.38039423,6.61362115 7.30212115,6.66942692 7.35910385,6.34096731 C6.97375962,6.27103846 6.43168846,6.258975 6.11774423,6.14697115" id="path41" fill="#66CC29"></path>
            <path d="M14.3790577,7.03907885 C13.6442654,7.75631538 12.2977673,8.68196538 12.24,9.83652692 C12.2273481,10.0904481 12.1202481,10.4102769 12.3149308,10.5911308 C12.6659481,10.9172365 12.7264615,10.9941288 13.1971327,11.0188442 C13.8561115,11.0533673 14.0757058,10.4395038 14.2630327,9.9093 C14.4569308,10.3747731 14.6507308,10.8402462 14.8446288,11.3057192 C15.7497808,10.5040385 16.6548346,9.70245577 17.5599865,8.900775 C17.1332538,8.61645 16.7067173,8.33202692 16.2799846,8.04760385 C17.0190923,8.04760385 17.0390019,8.01896538 17.4914308,7.43736923 C17.7721269,7.07644615 17.2859596,6.47091923 17.0134038,6.25269808 C16.0806923,5.50721538 15.1126731,7.01387308 14.3780769,7.03947115" id="path43" fill="#000000"></path>
            <path d="M14.9616346,10.8012115 C14.9699712,10.6319308 14.6315077,9.81269423 14.4573231,9.67617115 C14.1814327,9.45991154 13.872,9.67077692 13.6425,9.831525 C13.7296904,9.81985385 13.8256096,9.872325 13.914075,9.87016731 C13.806975,10.4053731 13.6211192,10.6458577 13.0706135,10.6458577 C12.6001385,10.6458577 12.4994135,9.96226154 12.5955288,9.63762692 C12.8720077,8.70364038 13.8415962,8.02259423 14.5001827,7.38019038 C14.9308385,6.960225 16.130025,6.08331923 16.7406519,6.52750962 C17.18445,6.85037885 17.2522212,7.25141538 16.9138558,7.66510385 C16.6636615,7.97090769 16.0242,7.85556923 16.3192154,7.38793846 C15.6860308,8.25856731 16.3065635,8.48169231 17.0171308,9.05583462 C16.3894385,9.59898462 15.6950538,10.4497038 14.9604577,10.8018" id="path45" fill="#FFF299"></path>
            <path d="M16.0081154,8.2416 C16.0081154,7.82408654 16.0714731,7.72767692 16.3183327,7.38823269 C15.8307923,8.16117692 17.5995115,7.74484038 17.1326654,7.07791731 C17.0470442,7.32801346 16.9063038,7.47120577 16.6674865,7.58203269 C16.7334923,7.11803077 16.293225,7.17138462 16.0419519,7.33134808 C15.6388558,7.58870192 15.7506635,7.94658462 16.0086058,8.2416" id="path47" fill="#B37D47"></path>
            <path d="M13.3708269,10.608 C13.4742,10.4915827 13.577475,10.3751654 13.6808481,10.2587481 C13.3667077,10.1543942 13.2801058,9.56661923 13.6420096,9.44441538 C13.7290038,9.41499231 13.9479115,9.533175 14.0298058,9.56063654 C13.9005404,9.65116154 13.771275,9.74178462 13.6420096,9.83240769 C13.7292,9.82073654 13.8251192,9.87320769 13.9135846,9.87105 C13.8635654,10.12605 13.71645,10.7066654 13.3712192,10.6085885" id="path49" fill="#B37D47"></path>
            <path d="M17.0163462,6.69002308 C15.8752212,5.96376346 14.7087923,7.17638654 13.9122115,7.95345 C13.3665115,8.48581154 13.0165731,8.86448654 12.6535904,9.53023269 C12.3608308,10.0673019 12.7398,10.7382462 13.3707288,10.6461519 C11.6308442,10.3373077 13.7952058,8.34811154 14.2596,7.90696154 C14.7720519,7.42000962 16.6628769,5.67227885 17.0943173,7.07781923 C17.0609712,6.95071154 17.0344904,6.81928846 17.0168365,6.689925" id="path51" fill="#B37D47"></path>
            <path d="M15.5814808,10.2970962 C15.2428212,9.73236923 14.8692462,9.38517692 14.3789596,8.93961346 C14.6554385,8.76366346 14.9321135,8.58771346 15.2085923,8.41176346 C15.2730288,8.37076731 15.7166308,8.94981346 15.7754769,9.01719231 C15.8333423,9.08329615 16.3453038,9.61428462 16.2959712,9.65783077 C16.0566635,9.86948077 15.8095096,10.0734808 15.5809904,10.2970962" id="path53" fill="#D9B86C"></path>
            <path d="M8.48365385,9.52150385 C8.67372692,9.73442885 9.32544808,10.7005846 9.55700769,10.5321865 C10.0914288,10.1436058 10.6257519,9.755025 11.1601731,9.36644423 C10.89105,9.08565 10.4589231,8.319375 10.0825038,8.54848269 C9.54975,8.87252885 9.0168,9.19686923 8.48385,9.52120962" id="path55" fill="#000000"></path>
            <path d="M9.06544615,9.56024423 C9.19471154,9.74129423 9.324075,9.92224615 9.45334038,10.1032962 C9.82838654,9.83172115 10.2033346,9.56024423 10.5783808,9.28876731 C10.1520404,8.99355577 10.1371327,8.90518846 9.72501346,9.17244808 C9.54749423,9.28778654 9.18500192,9.54798462 9.06525,9.56063654" id="path57" fill="#66CC29"></path>
            <path d="M6.46670192,13.40025 C6.840375,12.9911712 7.23258462,12.6769327 7.38656538,12.1440808 C7.56820385,11.5153096 7.82261538,10.9725519 7.70884615,10.3275981 C7.56555577,9.515325 7.41343846,9.26974038 6.89333654,8.61958846 C6.48563077,8.11007885 5.90099423,7.97679231 5.30145,7.72434231 C4.98240577,7.58997692 4.67375769,8.66784231 4.54459038,8.94196731 C4.28851154,9.48580385 4.07950962,10.0595538 3.83961346,10.6113346 C3.38061346,11.6670346 2.89611346,12.7186154 2.47163654,13.7880462 C3.28861731,14.0943404 3.72388269,14.2526365 4.58333077,14.1829038 C5.20965,14.1319038 6.05193462,13.8641538 6.46670192,13.40025" id="path59" fill="#000000"></path>
            <path d="M13.8366923,12.4695 C14.9429019,11.5078558 16.0577423,10.9103712 17.4545538,10.4713788 C17.9393481,10.3190654 18.9107019,10.4432308 19.3837269,10.6077058 C20.0097519,10.8254365 20.6499,11.4430269 21.2062904,11.8100308 L13.8366923,16.4257269 C13.554525,15.6392481 13.2939325,15.0206769 13.2939325,14.1933 C13.2929538,13.5224538 13.6303385,13.0830692 13.8363,12.4691077" id="path61" fill="#000000"></path>
            <path d="M11.0826923,15.3392308 L11.0050154,16.6194288 C11.4281192,16.5874558 11.851125,16.5554827 12.2742288,16.5235096 C12.8395442,16.48065 13.0523712,16.6376712 13.0801269,16.0568596 C13.1077846,15.479775 12.8987827,15.6220846 12.3426865,15.5457808 C11.9690135,15.4957615 11.4080135,15.5202808 11.0823981,15.3398192" id="path63" fill="#000000"></path>
            <path d="M11.4700962,15.7658654 C11.4572481,15.9210231 11.4443019,16.0761808 11.4314538,16.2313385 C11.7328442,16.1935788 12.6545712,16.2495808 12.7113577,15.9210231 C12.2964923,15.8768885 11.8835885,15.7994077 11.4697038,15.7650808" id="path65" fill="#66CC29"></path>
            <path d="M6.15638654,13.0118654 C6.82242692,12.4411558 6.98091923,12.2771712 7.20571154,11.4392019 C7.35665192,10.8765346 7.52112692,10.1172231 7.14284423,9.59162885 C6.94914231,9.32250577 6.75857885,8.91980192 6.50563846,8.70648462 C6.22445192,8.46933462 5.75809615,8.33271346 5.42836154,8.16774808 C5.23799423,8.07251538 4.74751154,9.41057885 4.64374615,9.65685 C4.15689231,10.8133731 3.69838269,11.9815673 3.17916346,13.1232808 C2.99115,13.5367731 2.98095,13.5396173 3.40277885,13.7295923 C3.81293654,13.9143692 3.99496731,13.8837692 4.45151538,13.8379673 C5.13825,13.7693135 5.57645769,13.3858327 6.15638654,13.0111788" id="path67" fill="#FF4D66"></path>
            <path d="M4.68258462,11.9653846 C3.99692885,12.2056731 5.28281538,12.6529038 4.68258462,11.9653846" id="path69" fill="#FFBFD9"></path>
            <path d="M5.57459423,8.55181559 C5.36235577,8.76994038 5.14894038,9.52621154 5.65227115,9.48256731 C5.57930192,9.41940577 5.50888269,9.29259231 5.53585385,9.13351154 C5.59577885,8.78141538 5.95454423,8.84359615 5.84616923,9.21118846 C6.09969808,8.88998654 5.89275577,8.55093462 5.57459423,8.55181559" id="path71" fill="#FFBFD9"></path>
            <path d="M6.15638654,9.48256731 C5.85597692,9.58142885 5.97670962,9.92989615 6.23406346,9.94813846 C6.29732308,9.80563269 6.25034423,9.61546154 6.15638654,9.48276346" id="path73" fill="#FFBFD9"></path>
            <path d="M3.94553654,13.40025 C4.13551154,13.1855596 4.42219038,12.4420385 3.86815385,12.5082404 C4.28095962,12.8278731 3.59402885,13.4112346 3.67435385,12.7796192 C3.456525,13.0356 3.61089808,13.4592923 3.94553654,13.3994654" id="path75" fill="#FFBFD9"></path>
            <path d="M5.22573462,10.6854808 C5.098725,11.1190788 5.55242885,11.05425 5.45837308,10.6854808 C5.37981346,10.72275 5.26290577,10.6776346 5.22573462,10.6854808" id="path77" fill="#000000"></path>
            <path d="M4.45004423,13.2835385 C4.280175,13.6264154 4.66228269,13.7224327 4.68258462,13.3222788 C4.60824231,13.3379712 4.44925962,13.2830481 4.45004423,13.2830481" id="path79" fill="#000000"></path>
            <path d="M6.19542115,8.97845192 C6.10656346,9.11948654 6.11901923,9.25149808 6.23406346,9.32750769 C6.447675,9.19284808 6.47307692,8.96540769 6.19542115,8.97845192" id="path81" fill="#000000"></path>
            <path d="M5.69081538,11.3837885 C5.54615192,11.6441827 5.15384423,12.5640462 5.80752692,12.4696962 C5.69267885,12.3608308 5.65227115,12.2623615 5.65227115,12.0818019 C5.65227115,11.6459481 6.18002308,11.6984192 6.03996923,12.1593808 C6.26456538,11.8622077 6.17884615,11.2776692 5.69081538,11.3845731" id="path83" fill="#000000"></path>
            <path d="M4.56626538,10.3745769 C4.49888654,10.5737712 4.382175,10.7154923 4.48868654,10.8786923 C4.77889615,11.323275 4.95415962,10.5963288 4.95415962,10.3358365 C4.83234808,10.3485865 4.68258462,10.3387788 4.56626538,10.3750673" id="path85" fill="#000000"></path>
            <path d="M5.53595192,12.6627115 C5.21327885,12.7764808 5.42610577,13.095525 5.61362885,13.1282827 C5.70395769,12.9752827 5.68159615,12.7722635 5.53595192,12.6624173" id="path87" fill="#FFBFD9"></path>
            <path d="M6.77731154,11.1503654 C7.00239808,10.9567615 7.24347115,10.1830327 6.73827692,10.2580615 C7.18776346,10.6497808 6.37764808,11.0567019 6.54447692,10.4908962 C6.34381154,10.8047423 6.52662692,11.2686462 6.77731154,11.1509538" id="path89" fill="#FFBFD9"></path>
            <path d="M18.7238654,11.2278462 C18.5616462,11.4713712 18.1408962,12.3773077 18.8014442,12.3138519 C18.7125865,12.2219538 18.6558981,12.0703269 18.6848308,11.8872173 C18.7540731,11.4493038 19.1421635,11.6068154 19.0341808,12.042375 C19.2273923,11.6814519 19.2146423,11.1665481 18.7242577,11.2283365" id="path91" fill="#000000"></path>
            <path d="M14.2633269,12.6244615 C15.1938808,11.6941038 16.2240808,11.2488346 17.4823096,10.8947769 C18.6466788,10.5672 19.65795,11.2370654 20.5856596,11.8099327 C18.3876577,13.0907192 16.2542885,14.4987115 14.0694288,15.8051942 C13.8205096,15.2080038 13.6813385,14.8729731 13.7008558,14.2341 C13.7214519,13.5495231 13.9244712,13.2297923 14.2638173,12.6246577" id="path93" fill="#FF4D66"></path>
            <path d="M14.535,15.26175 C14.2469481,15.1105154 13.5585462,14.4483981 14.1858462,14.253225 C13.8328673,14.8408038 14.9905673,15.0937442 14.535,14.4471231 C14.8821923,14.6717192 14.892,15.3700269 14.535,15.2611615" id="path95" fill="#000000"></path>
            <path d="M14.2240962,13.2835385 C13.9777269,13.4371269 14.1863365,13.7192942 14.4178962,13.7099769 C14.4541846,13.5344192 14.3835692,13.3755346 14.2237038,13.2833423" id="path97" fill="#FFBFD9"></path>
            <path d="M19.2279808,12.3145385 C19.5486923,12.3500423 19.460325,11.9618538 19.266525,11.8879038 C19.1478519,12.0026538 19.1311788,12.1497692 19.228275,12.3145385" id="path99" fill="#FFBFD9"></path>
            <path d="M17.1722885,12.9736154 C17.0436115,13.3331654 17.4696577,13.3917173 17.3662846,12.9736154 C17.2888038,13.01775 17.2103423,12.96675 17.1720923,12.9736154" id="path101" fill="#000000"></path>
            <path d="M16.1630769,12.5469808 C16.3988538,12.3577904 16.5642115,11.5974981 16.0860865,11.6548731 C16.1585654,11.7184269 16.2290827,11.8450442 16.2021115,12.0039288 C16.1423827,12.356025 15.7835192,12.2940404 15.8918942,11.9264481 C15.6878942,12.1961596 15.8712981,12.738525 16.1625865,12.547275" id="path103" fill="#FFBFD9"></path>
            <path d="M15.3490385,14.2535192 C14.8370769,14.6566154 16.0502885,14.8635577 15.3490385,14.2535192" id="path105" fill="#FFBFD9"></path>
            <path d="M16.7064231,11.1503654 C16.7428096,11.0846538 16.6372788,11.3547577 16.6678788,11.3831019 C16.8659942,11.5674865 17.0680327,11.1182942 16.7061288,11.1506596" id="path107" fill="#000000"></path>
            <path d="M19.6928654,11.6937115 C19.5946904,11.838375 19.6161692,11.9652865 19.7317038,12.0427673 C19.9445308,11.9074212 19.9700308,11.6808635 19.6924731,11.6936135" id="path109" fill="#000000"></path>
            <path d="M16.5514615,13.3227692 C16.4880058,13.6445596 16.3098981,13.7978538 16.6293346,14.0207827 C16.9231731,13.8167827 16.9009096,13.6509346 16.9009096,13.3227692 C16.7949865,13.3521923 16.5811788,13.3208077 16.5517558,13.3227692" id="path111" fill="#000000"></path>
            <path d="M16.9006154,11.6162308 C16.5390058,12.2196 17.3006712,12.2490231 17.1720923,11.5775885 C17.0877462,11.5883769 16.9769192,11.5815115 16.9004192,11.6158385" id="path113" fill="#000000"></path>
            <path d="M15.1940769,12.7794231 C14.9516308,13.1509385 15.4946827,13.1970346 15.3882692,12.7794231 C15.3559038,12.7931538 15.1420962,12.7931538 15.1940769,12.7794231" id="path115" fill="#000000"></path>
            <path d="M17.9088462,11.53875 C18.6100962,11.6162308 17.4920192,10.62075 17.9088462,11.53875" id="path117" fill="#FFBFD9"></path>
            <path d="M15.2323269,12.3920192 C15.4202423,12.4646942 15.4830115,12.3116942 15.5039019,12.1205423 C15.1920173,11.7949269 15.2106519,12.3059077 15.2322288,12.3922154" id="path119" fill="#FFBFD9"></path>
            <path d="M17.7931154,12.1203462 C17.7507462,12.2214635 17.7820327,12.2862923 17.7153404,12.3531808 C17.8924673,12.5785615 18.0424269,12.3440596 17.9870135,12.1203462 C17.9546481,12.1340769 17.7408404,12.1330962 17.7928212,12.1203462" id="path121" fill="#000000"></path>
            <path d="M15.8139231,13.5934615 C16.1633712,13.7488154 16.0771615,13.2394038 15.8528596,13.1668269 C15.7783212,13.2766731 15.8136288,13.5934615 15.8136288,13.5934615" id="path123" fill="#FFBFD9"></path>
            <path d="M9.64723846,1.64769231 C9.00797308,1.60895192 8.27690769,1.39053462 7.79829231,1.94937692 C7.28397692,2.54990192 7.45060962,2.41210385 7.63028654,3.00546923 C7.65529615,2.96731731 7.70384423,2.69731154 7.748175,2.67200769 C7.87989231,2.59678269 8.10174231,2.400825 8.25101538,2.38493654 C8.37214038,2.37199038 8.49414808,2.60717885 8.60164038,2.49958846 C9.30455769,1.79676923 9.81249808,2.40347308 9.91891154,3.19926923 C9.97373654,2.98810962 10.2,2.57755962 10.15155,2.34590192 C10.1074154,2.13199615 9.7716,1.84718077 9.64782692,1.64769231" id="path125" fill="#E6B845"></path>
            <path d="M13.1766346,1.33737692 C12.6265212,1.69329808 12.5102019,1.78362692 12.2874692,2.39621538 C12.1739942,2.70829615 11.60505,2.86472885 11.3924192,2.61747692 C11.0704327,2.24301923 11.5624846,1.51058077 11.8316077,1.22449038 C12.4447846,0.572573077 13.8689596,0.719198077 14.3012827,1.49263269 C14.5705038,1.97428846 14.3497327,2.38689808 14.3012827,2.88885577 C14.2082077,2.3613 14.1005192,2.16524423 13.6032692,1.95790962 C13.6830058,2.717025 13.6504442,2.71937885 13.0601192,3.19917115 C12.9698885,2.99615192 12.5397231,2.35090385 12.5948423,2.15200385 C12.6870346,1.82246538 13.4853808,1.79814231 13.1774192,1.33737692" id="path127" fill="#E6B845"></path>
            <path d="M16.2023077,3.16043077 C15.9746712,3.19838654 15.8631577,3.31088077 15.7240846,3.47515962 C15.464475,3.78194423 15.4863462,3.78469038 15.0931558,3.71623269 C14.7369404,3.65434615 14.4586962,3.66660577 14.5345096,3.23791154 C14.6369019,2.65876731 15.3992538,2.13317308 16.0084096,2.07432692 C16.7793923,1.99988654 18.374025,2.46398654 18.374025,3.43180962 C18.374025,3.96887885 18.1089231,4.37805577 17.7536885,4.75065 C17.8041981,4.65090577 17.8099846,4.40757692 17.7925269,4.24614231 C17.7512365,3.86423077 17.6941558,3.86933077 17.3267596,3.58696731 C17.2807615,3.77086154 17.2597731,4.23015577 17.1328615,4.36265769 C16.9798615,4.52232692 16.4217058,4.57009038 16.2022096,4.63413462 C16.3791404,4.20465577 16.5656827,3.80254038 16.7842962,3.39297115 C16.5910846,3.329025 16.3321615,3.26851154 16.2017192,3.16043077" id="path129" fill="#E6B845"></path>
            <path d="M24.9292904,12.1595769 C21.8055404,13.8743538 18.6797308,15.5829519 15.6203192,17.3958058 C12.3986885,19.3046769 9.21874038,21.2409115 5.95160192,23.0773038 C5.29272115,23.4476423 4.66414615,23.6904808 3.94916538,23.9517577 L1.93898077,24.6861577 C1.50224423,24.8457288 1.23861346,25.1079865 0.919961538,24.687825 C2.418675,24.1328077 4.08107885,23.7182365 5.47377115,22.9297962 C7.171875,21.96825 8.92303846,21.0674135 10.5780865,20.0333885 C13.3412077,18.3070385 16.0958942,16.5318462 18.9531692,14.9795827 C20.9452096,13.8974019 22.93725,12.8152212 24.9292904,11.7329423 L24.9292904,12.1585962" id="path131" fill="#B3995A"></path>
            <path d="M1.26940962,20.3813654 C1.31785962,19.9223654 1.32992308,19.6703077 1.582275,19.2917308 C1.69859423,19.1172519 1.81491346,18.942675 1.93113462,18.7681962 C2.03686154,18.6096058 2.30549423,18.5612538 2.39405769,18.4035462 C2.56167115,18.1050981 2.26734231,17.5189904 2.51067115,17.3176385 C2.58462115,17.2564385 2.87777308,17.2437865 2.97575192,17.2013192 C3.21358846,17.6123596 4.16375769,18.2634923 4.06215,18.8298865 C3.98280577,19.2722135 3.10384038,19.2858462 2.76106154,19.4728788 C2.44260577,19.6465731 2.12415,19.8201692 1.80579231,19.9938635 C1.62111346,20.0958635 1.37592115,20.3606712 1.26940962,20.3822481" id="path133" fill="#000000"></path>
            <path d="M1.65740192,19.7615192 C1.85649808,19.2183692 2.31647885,19.0298654 2.63405192,18.5931288 C2.87228077,18.2653558 2.53205192,17.5875462 2.97575192,17.5896987 C3.10923462,17.99025 3.47614038,18.3977596 3.67435385,18.7919308 C3.35462308,18.9826904 3.00282115,18.8824558 2.68730769,19.077825 C2.35178654,19.2847673 1.99782692,19.5907673 1.65740192,19.7614212" id="path135" fill="#FF994D"></path>
            <path d="M13.1766346,11.8486731 C12.6605538,12.1219154 12.4381154,12.1977288 11.8578923,12.1977288 C11.3387712,12.1977288 11.0281615,11.9280173 10.5603346,12.1814481 C10.1823462,12.3861346 9.98226923,12.6436846 9.72462115,12.2366654 C9.589275,12.0229558 9.61467692,11.8361192 9.74394231,11.5771962 C9.93421154,11.1962654 10.1133,10.1202635 10.73295,10.3748712 C10.9386173,10.4594135 11.1678231,10.8096462 11.3269038,10.968825 C11.4603865,11.1023077 11.6937115,11.1810635 11.8574019,11.2703135 C12.3085558,11.5164865 12.6851712,11.7087173 13.1765365,11.8489673" id="path137" fill="#000000"></path>
            <path d="M12.4008462,11.8486731 C11.9268404,11.9983385 11.7008712,11.8255269 11.2759038,11.6936135 C10.769925,11.5365923 10.4686327,11.8569115 10.0736769,12.1203462 C10.0453327,12.0896481 9.93038654,11.9502808 9.91842115,11.9264481 C10.1116327,11.5382596 10.3312269,11.1377135 10.5387577,10.7239269 C10.8593712,10.8933058 11.0170788,11.2150962 11.3418115,11.3775115 C11.6301577,11.5226654 12.2343115,11.7374538 12.4000615,11.8492615" id="path139" fill="#FF994D"></path>
            <path d="M19.1495192,6.80634231 C18.8577404,6.81791538 18.1785577,6.06193846 17.9999596,6.61685769 C17.6113788,7.82506731 17.5947058,8.99561538 17.637075,10.2583558 C18.4550365,9.8787 19.2055212,9.51081346 19.4987712,8.55181731 C19.5687,8.32329808 19.5109327,7.93491346 19.4987712,7.69864615 C19.4791558,7.30937885 19.3055596,7.18668462 19.1496173,6.80585192" id="path141" fill="#000000"></path>
            <path d="M19.1495192,7.58203269 C19.0081904,7.27485577 18.7893808,7.07350385 18.3351865,6.80634231 C17.9712231,7.77602885 17.9164962,8.80564038 18.0249692,9.83191731 C18.8301808,9.39184615 19.1332385,8.46168462 19.1489308,7.58173846" id="path143" fill="#FF994D"></path>
            <path d="M20.5078846,8.900775 C20.9991519,9.05603077 21.4905173,9.21118846 21.9816865,9.36644423 C21.8141712,9.79366731 21.6466558,10.2209885 21.4790423,10.6482115 C21.2450308,11.2449115 21.3531115,11.3996769 20.7408173,11.1699808 C20.1960981,10.9656865 20.2772077,10.9787308 20.3409577,10.405275 C20.3968615,9.90410192 20.4527654,9.40253654 20.5086692,8.90106923" id="path145" fill="#000000"></path>
            <path d="M20.8178077,9.40518462 C21.1060558,9.52052308 21.4458923,9.50326154 21.3330058,9.83191731 C21.2129596,10.1809731 21.0931096,10.5300288 20.9730635,10.8789865 C20.5090615,10.6933269 20.5873269,10.6390904 20.6821673,10.1614558 C20.7263019,9.94176346 20.8459558,9.53709808 20.8184942,9.40489038" id="path147" fill="#66CC29"></path>
            <path d="M18.9180577,8.163825 C18.6593308,8.60340577 18.4008,9.04298654 18.1420731,9.48256731 L19.3735269,10.1109462 C19.9558096,10.4080212 19.9670885,10.5856385 20.2946654,10.0062981 C20.6151808,9.43941346 20.4737538,9.49610192 19.9870962,9.06868269 C19.6546154,8.7771 19.2995769,8.36890385 18.9180577,8.16431538" id="path149" fill="#000000"></path>
            <path d="M19.0337885,8.74561731 C18.8536212,9.13184423 18.6323596,9.25806923 19.0250596,9.46756154 C19.3107577,9.61997308 19.8382154,10.1059442 20.0228942,9.77356154 C20.215125,9.42784038 19.2873173,8.94628269 19.0342788,8.74561731" id="path151" fill="#66CC29"></path>
            <path d="M9.22070192,4.44033462 C8.89371346,4.76330192 8.57859231,5.13717115 8.40587885,5.56527692 C9.05563846,5.60342885 9.93372115,5.48661923 10.5335596,5.74603269 C11.2689404,6.06409615 12.0002019,6.36999808 12.7500981,6.65128269 C12.4951962,5.92306154 11.9841173,4.92875769 11.2763942,4.55685 C10.7340288,4.27174038 9.77748462,4.29204231 9.22119231,4.44033462" id="path153" fill="#000000"></path>
            <path d="M12.0516923,5.95317115 C10.9674519,5.48318654 10.1708712,5.21671154 8.98727885,5.17738269 C9.26768077,4.95053077 9.47609423,4.77271731 9.95696538,4.78948846 C10.28415,4.80086538 10.9163538,4.86304615 11.1982269,5.02212692 C11.5238423,5.20562885 11.8033615,5.83636154 12.0514962,5.95317115" id="path155" fill="#FF994D"></path>
            <path d="M15.2715577,5.52643846 C14.9225019,5.30664808 14.5735442,5.08675962 14.2244885,4.86696923 C14.0776673,5.21779038 13.9308462,5.56870962 13.784025,5.91953077 C13.5783577,6.41079808 13.4024077,6.46630962 13.8755308,6.72895962 C14.3422788,6.988275 14.3013808,6.82409423 14.6254269,6.40756154 C14.7794077,6.20905385 15.2825423,5.69209038 15.2717538,5.52643846" id="path157" fill="#000000"></path>
            <path d="M14.7282115,5.64275769 C14.5989462,5.55233077 14.4695827,5.46190385 14.3403173,5.37137885 C14.2390038,5.62471154 14.1377885,5.87814231 14.0363769,6.13157308 C13.9618385,6.31791923 14.1628962,6.61803462 14.2432212,6.45738462 C14.3834712,6.17776731 14.6423942,5.94954231 14.7277212,5.64275769" id="path159" fill="#66CC29"></path>
            <path d="M6.46670192,20.2656346 C6.12274615,19.9965115 5.84871923,19.8409615 5.57459423,19.4898462 C6.28084615,19.2683885 7.13794038,19.1424577 7.75935577,18.733575 C8.52200192,18.2317154 9.27621346,17.7610442 10.0741673,17.3179327 C10.0316019,17.8067481 10.0744615,18.1214769 9.75375,18.48495 C9.50179038,18.7704519 9.10585385,19.4629731 8.73580962,19.5867462 C8.04456346,19.8182077 7.18109423,20.7381692 6.46640769,20.2654385" id="path161" fill="#000000"></path>
            <path d="M9.492375,18.0932308 C8.98884808,18.4504269 8.508075,18.8423423 7.95021346,19.1083269 C7.36028077,19.3894154 6.75573462,19.4988692 6.11774423,19.6445135 C6.44169231,19.8186981 6.858225,20.0234827 7.28132885,19.9162846 C7.97473269,19.7407269 9.15028269,18.6883615 9.492375,18.0930346" id="path163" fill="#FF994D"></path>
            <path d="M7.59164423,14.9125962 C6.60440192,15.0464712 4.81008462,14.9932154 4.10991346,15.8929731 C3.72113654,16.3925769 3.33804808,16.9813327 3.88796538,17.5311519 C4.47574038,18.1189269 4.95563077,17.8590231 5.53595192,17.3949231 C5.36794615,17.9508231 5.19994038,18.5067231 5.03183654,19.0626231 C6.24710769,18.9720981 7.46237885,18.8816712 8.67765,18.7911462 L8.32869231,17.1234462 C8.89332115,17.6477654 8.90538462,17.6186365 9.65096538,17.42415 C10.0541596,17.3191096 10.1469404,16.4546596 10.1127115,16.0954038 C10.0067885,14.9792885 8.44569808,15.0008654 7.59164423,14.9125962" id="path165" fill="#000000"></path>
            <path d="M5.45837308,18.7140577 C5.65874423,18.4577827 5.84616923,17.6870942 5.84616923,17.3566731 C5.84616923,16.9495558 5.40521538,16.9137577 5.10902308,16.8910038 C5.52349615,17.2567327 4.80331731,17.6649288 4.44994615,17.5507673 C4.10030192,17.4377827 3.94945962,16.6365923 4.14669231,16.4033654 C4.93022885,15.4767346 5.94944423,15.469575 7.08595962,15.3325615 C7.59017308,15.2717538 7.99944808,15.2941154 8.51013462,15.3435462 C8.82319615,15.3738519 9.56985577,15.5929558 9.65861538,15.9258288 C9.75983077,16.3048962 9.86928462,17.0164442 9.35143846,17.1641481 C9.00463846,17.2631077 8.97452885,17.2951788 8.67284423,17.1031442 C8.42000192,16.9421019 8.57074615,16.6417904 8.83270962,16.5420462 C8.57290385,16.6162904 7.97483077,16.7347673 8.02073077,17.1475731 C8.07153462,17.6051019 8.12243654,18.0626308 8.17324038,18.5202577 C7.26926538,18.5849885 6.36381923,18.6722769 5.45837308,18.7134692" id="path167" fill="#FFF299"></path>
            <path d="M7.97953846,17.085 C8.270925,16.7204481 8.38371346,16.6701346 8.83280769,16.5417519 C7.88616923,16.9021846 9.49816154,17.7723231 9.60869423,16.8520673 C9.39361154,16.9985942 9.20157692,17.0309596 8.94912692,16.9686808 C9.31936731,16.6014808 8.92421538,16.1887731 8.48355577,16.3089173 C7.92451731,16.4619173 8.15637115,16.9317058 7.97953846,17.0856865" id="path169" fill="#B37D47"></path>
            <path d="M4.37236731,17.4341538 C4.67905385,17.3577519 4.85088462,17.4216 4.80910385,17.0881385 C4.79203846,16.9516154 4.95474808,16.6354154 5.09254615,16.6077577 C5.49917308,16.5262558 5.44993846,16.6343365 5.61372692,16.9300385 C5.445525,16.9170923 5.27732308,16.9040481 5.10912115,16.8912 C5.63373462,17.3541231 4.51977692,17.7042577 4.37236731,17.4345462" id="path171" fill="#B37D47"></path>
            <path d="M9.80249423,16.4259231 C9.64272692,15.8672769 9.28886538,15.4189673 8.65195385,15.357375 C7.86841731,15.2816596 7.24700192,15.3132404 6.46405385,15.4076885 C5.669925,15.5035096 5.23161923,15.6275769 4.51467692,15.9860481 C3.94004423,16.2734135 3.95495192,17.0795077 4.37226923,17.4730904 C4.00418654,17.002125 4.25634231,16.2781212 4.77565962,16.0703942 C5.47024038,15.7925423 6.03683077,15.7036846 6.78417692,15.6103154 C7.81928077,15.48105 9.93234808,15.1944692 9.60859615,16.8138173 C9.67940769,16.6863173 9.75698654,16.5588173 9.80249423,16.4264135" id="path173" fill="#B37D47"></path>
            <path d="M6.23406346,18.6748269 C6.38108077,17.940525 6.35597308,17.331075 6.31174038,16.5801981 C6.63843462,16.6179577 6.96503077,16.6557173 7.291725,16.6933788 C7.36351731,16.7017154 7.30251346,17.5509635 7.30055192,17.6468827 C7.29849231,17.7463327 7.32526731,18.5952865 7.24935577,18.598425 C6.91736538,18.6141173 6.55310769,18.5817519 6.23406346,18.6759058" id="path175" fill="#D9B86C"></path>
            <path d="M13.2158654,5.37137885 C12.871125,5.14452692 12.4619481,4.78772308 12.0524769,4.71181154 C12.0905308,5.3601 12.3120865,6.22386346 12.1202481,6.84733846 C11.8822154,7.62126346 11.6594827,8.38538077 11.4705865,9.17244808 C11.8520077,8.96050385 12.152025,8.80220769 12.4475308,8.487675 C12.6693808,8.25150577 13.3712192,7.74287885 13.3712192,7.40745577 C13.3702385,6.72111346 13.5948346,5.98475192 13.2152769,5.37137885" id="path177" fill="#000000"></path>
            <path d="M12.0134423,8.39656154 C12.4161462,7.26092885 12.5978827,6.45944423 12.5176558,5.25486346 C12.648,5.51378654 12.9729288,5.67620192 13.0218692,6.10823077 C13.1444654,7.18560577 12.6727154,7.65186346 12.0136385,8.39656154" id="path179" fill="#FF994D"></path>
            <path d="M21.3611538,5.99181346 C21.4555038,6.33410192 21.5499519,6.67648846 21.6443019,7.018875 C21.7086404,7.25249423 21.4317692,7.56987115 21.3227077,7.77612692 C21.8791962,7.77612692 22.0033615,7.85713846 22.3179923,7.40265 C22.459125,7.19874808 22.369875,6.96375577 22.3116173,6.72895962 C22.1699942,6.15854423 21.9360808,5.86450962 21.5940865,5.35195962 C21.4062692,5.07047885 20.7583731,4.67326731 20.4305019,4.67326731 C20.2161058,4.67326731 19.9885673,4.53321346 19.7710327,4.51810962 C19.4282538,4.494375 19.2733904,4.61912885 18.9180577,4.82832692 C19.1851212,4.86844038 19.600575,4.83185769 19.7782904,5.04782308 C19.9232481,5.22377308 20.0681077,5.39982115 20.2130654,5.57586923 C20.3081019,5.69130577 20.5844827,5.64638654 20.6632385,5.75946923 C20.7691615,5.91148846 20.6321481,6.43041346 20.7017827,6.65157692 C20.7431712,6.78319615 20.83605,6.92619231 20.895975,7.03937308 C20.9822827,6.69924231 21.342225,6.24573462 21.3608596,5.99181346" id="path181" fill="#E6B845"></path>
            <path d="M24.1926346,9.40518462 C24.0815135,9.75424038 24.0702346,10.1803846 23.766,10.2198115 C23.6389904,10.2361904 23.3132769,10.0692635 23.1844038,10.0258154 C23.2467808,9.92175577 23.3416212,9.828975 23.4362654,9.73482115 C23.5671981,9.60467308 23.3204365,9.13017692 23.2571769,8.93108077 C23.1907788,8.72256923 22.362225,8.23855962 22.2141288,8.28034038 C22.4745231,8.13008654 22.5873115,7.93452115 22.8976269,8.05388077 C23.1276173,8.14224808 23.6198654,8.21580577 23.7323596,8.44922885 C23.8853596,8.768175 24.0383596,9.086925 24.1923404,9.40557692" id="path183" fill="#E6B845"></path>
        </g>
    </g>
</svg>