<?xml version="1.0" encoding="UTF-8"?>
<svg width="34px" height="34px" viewBox="0 0 34 34" version="1.1" xmlns="http://www.w3.org/2000/svg" xmlns:xlink="http://www.w3.org/1999/xlink">
    <!-- Generator: Sketch 59.1 (86144) - https://sketch.com -->
    <title>Artboard</title>
    <desc>Created with Sketch.</desc>
    <defs>
        <rect id="path-1" x="0.108416564" y="0.118031277" width="16.67241" height="27.4894341"></rect>
    </defs>
    <g id="Artboard" stroke="none" stroke-width="1" fill="none" fill-rule="evenodd">
        <rect fill="#FFFFFF" x="0" y="0" width="34" height="34"></rect>
        <g id="s-market" transform="translate(8.000000, 3.000000)">
            <rect id="Rectangle" x="0.168289218" y="0.168292366" width="16.67241" height="27.4894341"></rect>
            <g id="Clipped" transform="translate(0.059873, 0.050261)">
                <mask id="mask-2" fill="white">
                    <use xlink:href="#path-1"></use>
                </mask>
                <g id="Rectangle"></g>
                <g id="g7" mask="url(#mask-2)" fill="#426FB3" fill-rule="nonzero">
                    <g transform="translate(0.565222, 0.612577)">
                        <path d="M0,17.1365108 L0,21.5132549 L1.6439455,21.5132549 C1.7326482,21.5132549 2.68026908,21.5672846 3.64539486,21.2099478 C4.73608462,20.7634031 5.19962776,20.4770961 5.89696228,19.7807691 C6.59429679,19.1009372 7.18340391,18.2620458 7.46970997,17.1365108 C7.73750124,16.0273025 7.71898644,15.6169459 7.71898644,15.4562033 L7.71898644,11.0604394 C7.71898644,9.6132508 8.25557887,8.16555724 8.95291339,7.21894305 C9.63173311,6.27148728 10.632037,5.4494276 11.8297759,4.9321898 C12.9186142,4.43077379 13.9732843,4.43077379 14.2772635,4.43077379 L16.0107533,4.43077379 L16.0107533,0 C16.0107533,0 14.5275499,0.0171683227 14.3843127,0 C14.170046,0 12.472576,0.107217858 11.2036392,0.482564521 C9.97156376,0.857069599 8.38030127,1.55390152 6.64681148,3.18068425 C4.9143316,4.80612045 4.00273041,7.05820042 3.75345394,8.02248788 C3.50215767,9.00512188 3.32391069,9.88104297 3.32391069,11.0424295 L3.32391069,15.456035 C3.32391069,15.456035 3.3053959,16.1168471 2.89453576,16.5633918 C2.60907128,16.9028869 2.23322094,17.117491 1.91190508,17.1363425 L0,17.1363425 L0,17.1365108 Z" id="path9"></path>
                        <path d="M16.0107533,9.34512199 L16.0107533,4.94986307 L14.3668078,4.94986307 C14.2772635,4.94986307 13.3304842,4.8963383 12.3653585,5.27168496 C11.2755103,5.70021976 10.8111256,6.00369511 10.113791,6.70035872 C9.41645653,7.37968568 8.8271811,8.20157705 8.54087503,9.34495368 C8.27308377,10.4351422 8.29159856,10.863677 8.29159856,11.0072513 L8.29159856,15.4020052 C8.29159856,16.8496988 7.75500614,18.2978973 7.05868152,19.2445115 C6.37902022,20.1911257 5.37871633,21.0131854 4.18181897,21.5492747 C3.0919708,22.0326808 2.05480564,22.0326808 1.73247988,22.0326808 L0,22.0326808 L0,26.4629496 C0,26.4629496 1.48320341,26.4454447 1.6264406,26.4629496 C1.84070728,26.4629496 3.55669216,26.3562367 4.80627252,25.9817316 C6.04019947,25.623385 7.63045206,24.9262164 9.36310026,23.3006119 C11.09659,21.6738292 12.0080229,19.4050858 12.2584776,18.4394518 C12.508764,17.4749961 12.7055257,16.5822433 12.7055257,15.4200152 L12.7055257,11.0074196 C12.7055257,11.0074196 12.7055257,10.3452609 13.1155443,9.89922119 C13.4028603,9.55938939 13.7768591,9.36262695 14.098175,9.34512199 L16.0107533,9.34512199 Z" id="path11"></path>
                        <polygon id="polygon23" points="16.2960495 25.7418801 21.7099439 25.7418801 23.6401955 14.2342227 26.3923356 25.7418801 31.4312213 25.7418801 37.6494994 15.0557774 36.0767517 25.7418801 41.1341522 25.7418801 43.510442 9.87431029 35.5059911 9.87431029 29.8768201 19.7733632 27.2864319 9.82061721 19.0481896 9.82061721"></polygon>
                    </g>
                </g>
            </g>
        </g>
    </g>
</svg>